<svg width="76" height="39" viewBox="0 0 76 39" fill="none" xmlns="http://www.w3.org/2000/svg">
<path d="M30.3492 27.3301C38.9417 35.5014 52.9083 35.0995 67.7586 26.2804C64.862 25.1564 61.3519 27.865 59.1395 24.7946C59.2679 24.2871 59.276 23.7737 59.4241 23.7228C63.981 22.3145 68.5175 20.8329 73.1272 19.6334C74.6849 19.2263 76.203 20.2466 75.9783 22.0023C75.5023 25.712 75.1274 29.4956 72.9172 33.498C71.8726 31.6532 71.137 30.3643 70.5995 29.4046C66.0878 31.6059 61.8139 34.1416 57.2199 35.8275C46.3854 39.8163 36.0804 38.7911 26.9543 31.2143C25.5109 30.0124 24.2652 30.0475 22.578 30.3667C15.5173 31.7125 9.17744 30.0069 3.89093 25.1028C1.97134 23.3125 -0.0241481 21.2598 1.07509 17.341C3.37223 21.815 6.60125 24.3757 10.6693 25.8682C14.6607 27.3302 18.6842 27.9491 22.7382 26.4534C22.5621 22.5657 21.9477 18.8616 22.3655 15.2854C22.7932 11.7105 23.8468 8.05796 25.3832 4.79283C26.96 1.45238 30.3875 0.266311 33.4646 1.02092C36.5417 1.77552 38.5832 4.38925 38.7561 8.22603C39.0278 14.2654 36.9778 19.5603 33.1781 24.2076C32.2856 25.2989 31.2946 26.2963 30.3492 27.3301ZM27.8011 24.0534C32.535 19.8136 34.4811 15.0697 34.7015 9.49973C34.7729 7.68317 34.5186 5.81295 32.3031 5.40563C30.4119 5.06188 29.3567 6.46436 28.7124 7.96217C26.5773 12.9128 26.18 17.995 27.8011 24.0534Z" fill="#2D2D2D"/>
</svg>
