<svg width="90" height="90" viewBox="0 0 90 90" fill="none" xmlns="http://www.w3.org/2000/svg">
<g clip-path="url(#clip0_1985_16208)">
<path d="M20.6508 71.1206C20.4391 70.7032 20.2789 70.3843 20.0889 70.012C20.1698 69.9268 20.2466 69.7834 20.3615 69.737C20.6458 69.622 20.7109 69.3233 20.6937 69.1442C20.6285 68.4556 20.9702 67.8626 21.0913 67.2233C21.1871 66.7227 21.1908 66.2131 21.3117 65.7192C21.5038 64.9339 21.7238 64.1542 21.91 63.3663C22.1049 62.5541 22.4301 61.7753 22.4832 60.9293C22.4965 60.7243 22.6066 60.528 22.6563 60.3254C22.9626 59.0713 23.2641 57.8173 23.5617 56.5616C23.5749 56.5066 23.5496 56.4435 23.5332 56.3142C23.3731 56.1759 23.1798 55.992 22.9692 55.8308C22.7331 55.6534 22.4814 55.4946 22.2316 55.332C22.1062 55.2517 21.9804 55.1618 21.8418 55.1107C20.6286 54.6729 19.4119 54.2428 18.1971 53.8137C17.7165 53.6426 17.2377 53.4676 16.751 53.3102C16.2091 53.1347 15.6688 52.9506 15.1155 52.8262C14.3645 52.6567 13.7138 52.3076 13.0961 51.8702C12.7003 51.5898 12.5464 51.2104 12.7481 50.7813C13.0525 50.1361 13.1038 49.4441 13.1033 48.7731C13.0972 46.6878 13.4294 44.6527 13.871 42.6298C14.1903 41.1659 14.4788 39.6926 14.8657 38.2452C15.2686 36.7418 15.6155 35.2223 16.0397 33.7238C16.2766 32.8862 16.4983 32.051 16.8146 31.24C16.8677 31.1023 16.9194 30.9522 16.9244 30.8067C16.9587 29.8936 17.292 29.0504 17.5289 28.1869C17.8533 27.0067 18.248 25.8419 18.5097 24.6497C18.6864 23.8363 18.9722 23.0513 19.0859 22.2164C19.1735 21.5737 19.48 20.96 19.6895 20.3327C20.0313 19.3104 20.3102 18.2667 20.7623 17.2804C20.9478 16.8767 21.0263 16.4245 21.1573 15.9961C21.3401 15.3966 21.5171 14.7945 21.7164 14.2001C21.8272 13.8681 22.0723 13.6533 22.4148 13.5601C23.2502 13.3316 24.0797 13.0747 24.889 12.7641C25.1075 12.6803 25.355 12.6518 25.5897 12.641C26.247 12.6086 26.9077 12.6151 27.5647 12.5731C27.9509 12.549 28.336 12.4704 28.7175 12.3996C29.3393 12.2853 29.9572 12.2208 30.5942 12.2589C33.199 12.4157 35.7959 12.6416 38.3764 13.0172C40.0073 13.2528 41.6361 13.5086 43.257 13.8077C44.2869 13.9982 45.3087 14.253 46.32 14.5312C47.6229 14.8901 48.9442 15.1518 50.2716 15.3998C50.6538 15.4724 51.0277 15.5787 51.4083 15.6599C53.4889 16.1089 55.5742 16.5319 57.6491 17.0088C59.9574 17.54 62.2549 18.1156 64.5567 18.6766C65.8388 18.9885 67.1231 19.285 68.3949 19.6298C69.2331 19.8553 70.0513 20.1608 70.8802 20.4172C72.5689 20.9441 74.2628 21.4545 75.9462 21.9931C76.5171 22.177 77.1068 22.3038 77.6655 22.4939C78.3626 22.7304 79.0191 23.1291 79.6414 23.5357C80.0138 23.7797 80.1675 24.2059 80.2517 24.6873C80.3969 25.5201 80.1452 26.2971 80.079 27.0996C80.0468 27.486 80.0041 27.8747 79.9537 28.2599C79.9198 28.5259 79.8908 28.7966 79.8173 29.0517C79.4287 30.3787 79.1856 31.7365 78.9454 33.0933C78.8359 33.712 78.7024 34.3269 78.5909 34.9447C78.3042 36.5384 78.0135 38.1303 77.7441 39.7271C77.5645 40.79 77.4348 41.8616 77.2571 42.9255C77.1348 43.6603 76.9586 44.3848 76.8267 45.12C76.7422 45.5906 76.703 46.07 76.6272 46.5421C76.4201 47.8155 76.2063 49.0881 75.9944 50.3616C75.7584 51.7813 75.5677 53.2098 75.2787 54.6171C74.918 56.3789 74.5151 58.1356 74.057 59.8743C73.7294 61.1188 73.282 62.3323 72.8791 63.5567C72.8138 63.7522 72.7031 63.9342 72.6166 64.1248C72.4102 64.5799 72.1558 64.9804 71.5789 64.9907C70.5802 65.5016 69.51 65.4828 68.4277 65.4491C67.6487 65.4241 66.867 65.5033 66.0887 65.4716C64.5026 65.411 62.9215 65.2777 61.3359 65.2315C60.0327 65.1938 58.7997 64.7634 57.5146 64.6495C56.3427 64.5447 55.2399 64.1218 54.0896 63.9072C53.5602 63.8077 53.0369 63.6688 52.5085 63.5722C51.3545 63.3606 50.2546 62.9625 49.132 62.6455C47.7804 62.2646 46.4459 61.8046 45.034 61.6237C44.1763 61.5137 43.332 61.2761 42.46 61.2182C42.0527 61.1906 41.6897 61.2464 41.3465 61.4706C41.0442 61.6665 40.7256 61.8362 40.4203 62.0284C39.8621 62.3802 39.3324 62.7826 38.6616 62.9121C37.9682 63.4066 37.0607 63.4218 36.3769 63.9418C36.3305 63.977 36.2665 64.0043 36.2112 64.0073C35.4457 64.0353 34.8797 64.4868 34.2732 64.8777C33.342 65.4778 32.3803 66.0312 31.4285 66.5938C31.249 66.7 31.046 66.765 30.8511 66.8431C30.7391 66.8884 30.5775 66.8878 30.5183 66.9665C30.0518 67.5968 29.2445 67.7067 28.6775 68.207C28.1234 68.6943 27.4125 69.0051 26.7613 69.3757C26.11 69.7463 25.4434 70.0888 24.7922 70.4594C24.4291 70.6653 24.0872 70.876 23.9244 71.3228C23.8128 71.631 23.5259 71.8291 23.1512 71.8538C22.8852 71.8715 22.6222 71.9445 22.3605 71.9993C22.0058 72.073 21.6883 72.018 21.4989 71.6859C21.3044 71.3444 21.0222 71.16 20.6423 71.1237L20.6508 71.1206ZM24.4683 66.7947C25.1516 66.5136 25.8144 66.2468 26.4699 65.9649C26.6618 65.8831 26.8348 65.7552 27.0132 65.6461C28.3941 64.8045 29.7709 63.9563 31.1559 63.1211C31.6951 62.7959 32.2476 62.493 32.7969 62.1817C33.5212 61.7739 34.1531 61.1928 35.0077 61.02C35.1728 60.987 35.3114 60.8365 35.4687 60.7483C35.625 60.6621 35.7842 60.5749 35.95 60.5094C36.3954 60.3339 36.8618 60.2054 37.2887 59.9933C37.7034 59.7874 38.1877 59.6038 38.1234 58.9649C38.1049 58.7782 38.2249 58.5653 38.3185 58.385C38.3845 58.2601 38.5171 58.0764 38.6166 58.0793C39.0472 58.0917 39.3185 57.8091 39.6429 57.6162C39.7672 57.5436 39.9279 57.5203 40.0742 57.4976C40.5571 57.4258 41.0241 57.4665 41.4921 57.6342C42.1422 57.8658 42.7925 58.1538 43.4649 58.2431C44.7483 58.4125 46.0028 58.7025 47.2592 58.9934C47.667 59.087 48.0668 59.219 48.4716 59.3347C48.9035 59.4579 49.3336 59.585 49.77 59.6985C50.0587 59.7756 50.3509 59.8448 50.6472 59.8948C51.5629 60.0475 52.3827 60.5719 53.3343 60.5885C54.6218 60.992 55.9538 61.1834 57.2736 61.4327C58.7725 61.7164 60.2637 62.0481 61.7871 62.1951C62.6495 62.2791 63.5016 62.417 64.3778 62.3361C64.9712 62.2793 65.584 62.2829 66.173 62.3649C66.6535 62.4327 67.1055 62.5581 67.5737 62.3272C67.6704 62.2796 67.8203 62.2749 67.9249 62.313C68.5186 62.519 69.0395 62.2393 69.5887 62.1039C70.1143 61.9741 70.4437 61.6357 70.5833 61.1573C70.7263 60.6664 70.9443 60.2118 71.1069 59.7344C71.5979 58.285 71.9874 56.806 72.2815 55.3048C72.6798 53.2739 73.082 51.2449 73.3629 49.1936C73.3831 49.0456 73.438 48.904 73.4649 48.7568C73.5272 48.4332 73.5829 48.109 73.6365 47.7839C73.6902 47.4589 73.738 47.1311 73.7917 46.806C74.0563 45.2094 74.3258 43.6126 74.5865 42.0142C74.8862 40.1801 75.1657 38.344 75.4768 36.5104C75.6982 35.2108 75.9657 33.918 76.2005 32.6197C76.3778 31.6448 76.5118 30.6619 76.8568 29.7256C76.9184 29.5588 76.9315 29.3748 76.964 29.1996C77.0403 28.7886 77.128 28.3781 77.1888 27.9648C77.2727 27.4025 77.3412 26.8379 77.4011 26.2717C77.4474 25.8284 77.2816 25.5374 76.8212 25.3942C76.0484 25.1539 75.2919 24.8623 74.5251 24.6035C73.8436 24.3741 73.1569 24.1611 72.4718 23.9394C71.8157 23.7262 71.1647 23.4966 70.5024 23.297C69.3568 22.9532 68.2043 22.6297 67.0543 22.2956C66.7083 22.1949 66.3683 22.0758 66.0199 21.9858C64.3057 21.5459 62.5942 21.1001 60.8734 20.6854C59.2703 20.3005 57.66 19.9523 56.0539 19.5895C55.4118 19.4437 54.7678 19.2969 54.1222 19.1588C53.4476 19.0123 52.7716 18.8791 52.0979 18.7306C51.3365 18.5635 50.5773 18.3809 49.8142 18.2176C48.5528 17.948 47.2881 17.6908 46.027 17.4259C44.0327 17.009 42.0601 16.5082 40.0378 16.2099C37.1571 15.7825 34.2644 15.4694 31.3627 15.2693C29.4374 15.1347 27.525 15.292 25.633 15.6837C24.0074 16.0204 24.0776 15.9795 23.5266 17.4111C22.966 18.8641 22.4957 20.3557 22.0311 21.8452C21.5664 23.3347 21.1589 24.8431 20.7252 26.3419C20.3 27.8118 19.8583 29.2765 19.4582 30.753C19.058 32.2296 18.7042 33.7178 18.3186 35.1986C18.0005 36.4168 17.6379 37.6243 17.3477 38.8482C17.0482 40.103 16.8017 41.3702 16.5504 42.6375C16.2896 43.9568 16.0423 45.2776 15.8113 46.6034C15.6973 47.2529 15.6122 47.9108 15.5539 48.5668C15.4899 49.2765 15.7889 49.703 16.4551 49.9301C17.5908 50.3164 18.7264 50.6978 19.8657 51.0763C20.7766 51.3793 21.6874 51.6823 22.6052 51.9649C23.2908 52.1751 23.9766 52.3901 24.7162 52.2847C24.9168 52.2561 25.171 52.2541 25.3248 52.3544C25.6912 52.591 26.0985 52.6702 26.4979 52.7928C26.9051 52.9189 27.1494 53.1868 27.2476 53.6113C27.392 54.2443 27.4131 54.8543 27.0809 55.447C26.7397 56.0544 26.5401 56.7167 26.384 57.3917C26.2288 58.0647 26.087 58.7391 25.9376 59.4148C25.7815 60.1155 25.7002 60.8479 25.452 61.5139C24.9121 62.9575 24.7039 64.4813 24.2787 65.9511C24.2034 66.2101 24.1651 66.4859 24.4699 66.786L24.4683 66.7947Z" fill="#2D2D2D"/>
<path d="M67.109 32.0905C67.3251 32.1674 67.4531 32.3194 67.498 32.5461C67.5628 32.8686 67.6238 33.1942 67.701 33.5153C67.7676 33.7871 67.658 33.9719 67.457 34.141C66.5612 34.8955 66.5589 34.9109 65.3526 34.706C64.8216 34.6152 64.2887 34.5025 63.7787 34.3344C61.4683 33.5701 59.1168 32.9584 56.7676 32.3312C55.665 32.0374 54.5795 31.6903 53.4844 31.3695C53.2254 31.2942 52.968 31.2102 52.7032 31.1581C51.4406 30.9067 50.1966 30.5885 48.9537 30.2522C47.8548 29.9554 46.7388 29.7118 45.6349 29.4361C44.3834 29.124 43.1443 28.7589 41.8833 28.4988C40.5307 28.2182 39.2485 27.6741 37.8702 27.4968C37.5782 27.4581 37.296 27.3254 37.0107 27.2358C36.8404 27.182 36.6712 27.1053 36.4953 27.0794C35.0689 26.8685 33.7086 26.357 32.2808 26.1595C31.859 26.1019 31.5721 25.8451 31.287 25.5844C30.7742 25.1173 30.7899 24.5709 31.2766 23.9943C31.7441 23.4395 32.3752 23.2943 33.0713 23.4295C33.6298 23.5374 34.1879 23.6616 34.7447 23.7782C36.3575 24.1159 37.9994 24.3119 39.5891 24.7727C40.2772 24.9723 40.9998 25.0492 41.6999 25.212C42.3131 25.3542 42.913 25.5466 43.5229 25.7013C44.683 25.9977 45.8455 26.2836 47.0072 26.5713C47.094 26.592 47.1902 26.5816 47.2726 26.612C48.4883 27.065 49.7804 27.215 51.0266 27.5387C52.1579 27.8315 53.2842 28.1454 54.4053 28.4711C55.2403 28.7138 56.052 29.0492 56.8972 29.2333C58.1596 29.5058 59.3892 29.8971 60.6354 30.2209C61.7368 30.5071 62.8179 30.8897 63.9324 31.1162C64.9996 31.333 65.9649 31.8365 67.021 32.0623C67.0508 32.0688 67.0772 32.0831 67.1053 32.0936L67.109 32.0905Z" fill="#2D2D2D"/>
<path d="M47.9073 40.8303C47.7163 41.0392 47.5547 41.2145 47.3951 41.3907C46.9843 41.8516 46.4758 41.9282 45.9189 41.7342C45.0696 41.4403 44.2282 41.129 43.3823 40.8274C43.1585 40.7469 42.9331 40.6235 42.7031 40.6083C42.089 40.5713 41.5342 40.3572 40.9762 40.1345C40.8374 40.0786 40.6942 40.0324 40.5476 39.9987C38.964 39.6485 37.4241 39.1657 35.8955 38.627C34.9065 38.2792 33.8815 38.0417 32.882 37.722C32.198 37.5032 31.524 37.2467 30.8591 36.9755C30.5863 36.8635 30.3284 36.6925 30.0958 36.5073C29.8702 36.3275 29.7936 36.0724 29.9097 35.7803C30.0057 35.5377 30.0498 35.2646 30.187 35.0501C30.3297 34.8287 30.5556 34.6615 30.7923 34.4241C31.4722 34.2799 32.1693 34.2373 32.9311 34.4914C35.0615 35.1976 37.2237 35.8079 39.3765 36.4491C40.2668 36.7147 41.154 36.9975 42.0559 37.2167C43.8869 37.6627 45.1353 38.1212 46.7035 38.8208C47.3626 39.1152 47.6871 39.5579 47.7992 40.2208C47.8297 40.3965 47.8622 40.573 47.9062 40.8275L47.9073 40.8303Z" fill="#2D2D2D"/>
<path d="M43.676 49.7906C43.3658 50.004 43.1541 50.1707 42.922 50.2999C42.7693 50.3831 42.5723 50.4813 42.4173 50.4508C41.7155 50.3177 40.9834 50.3961 40.3076 50.066C39.1965 49.5221 37.9869 49.2314 36.786 48.9938C35.7363 48.785 34.6457 48.7593 33.5698 48.7168C32.916 48.6899 32.3255 48.5439 31.8006 48.1604C31.66 48.0568 31.522 47.9215 31.4436 47.7686C31.119 47.1195 31.5638 46.0924 32.2591 45.852C32.9997 45.5946 33.7418 45.4013 34.5461 45.5152C34.9863 45.5788 35.4424 45.5348 35.8924 45.5303C36.6482 45.5237 37.3896 45.5645 38.0827 45.9235C38.2631 46.0171 38.4869 46.0717 38.6884 46.0669C39.1621 46.0567 39.5701 46.2066 39.9518 46.4665C40.0499 46.5345 40.1506 46.6177 40.2616 46.6469C41.1554 46.8789 41.8339 47.508 42.6294 47.9204C42.9921 48.1084 43.2345 48.4013 43.3555 48.7963C43.4505 49.109 43.5539 49.4186 43.6732 49.7917L43.676 49.7906Z" fill="#2D2D2D"/>
</g>
<defs>
<clipPath id="clip0_1985_16208">
<rect width="67" height="68.1597" fill="white" transform="translate(28.1582) rotate(24.4012)"/>
</clipPath>
</defs>
</svg>
