<svg width="192" height="162" viewBox="0 0 192 162" fill="none" xmlns="http://www.w3.org/2000/svg">
<g clip-path="url(#clip0_2030_2382)">
<path d="M81.9136 157.289H107.737L111.81 138.204H85.9856L81.9136 157.289Z" fill="#BDCBD5"/>
<path d="M84.2974 146.155H110.108L111.809 138.204H85.9855L84.2974 146.155Z" fill="#7C97AB"/>
<path d="M123.626 161.258H72.7255C72.7255 159.067 74.5038 157.289 76.6945 157.289H119.657C121.848 157.289 123.626 159.067 123.626 161.258Z" fill="#BDCBD5"/>
<path d="M161.898 110.924C163.277 110.924 164.153 109.816 163.857 108.437L153.883 63.5161C153.587 62.1373 152.233 61.0291 150.868 61.0291H37.031C35.6521 61.0291 34.7759 62.1373 35.0723 63.5161L45.0462 108.437C45.3426 109.816 46.6956 110.924 48.0615 110.924H161.898Z" fill="white"/>
<path d="M164.759 134.519C166.137 134.519 167.014 133.411 166.717 132.032L156.743 87.1108C156.447 85.732 155.094 84.6238 153.728 84.6238H39.8786C38.4998 84.6238 37.6235 85.732 37.9199 87.1108L47.8938 132.032C48.1902 133.411 49.5433 134.519 50.9092 134.519H164.759Z" fill="#A3D645"/>
<path d="M36.0902 61.4414H149.94L164.153 128.295H50.3036L36.0902 61.4414ZM35.0335 56.4673C32.2888 56.4673 30.5234 58.6966 31.1161 61.4414L45.3296 128.295C45.9095 131.04 48.6156 133.269 51.3603 133.269H165.197C167.942 133.269 169.707 131.04 169.114 128.295L154.901 61.4414C154.321 58.6966 151.615 56.4673 148.87 56.4673H35.0335Z" fill="#4C4748"/>
<path d="M168.264 124.287L170.222 133.501C170.802 136.245 169.05 138.475 166.305 138.475H52.4684C49.7237 138.475 47.0176 136.245 46.4377 133.501L44.479 124.287H168.264Z" fill="#BDCBD5"/>
<path d="M59.6275 79.6212C62.6964 76.3233 62.0968 70.7768 58.2883 67.2327C54.4798 63.6887 48.9045 63.4892 45.8356 66.7871C42.7667 70.085 43.3662 75.6316 47.1747 79.1756C50.9833 82.7197 56.5585 82.9192 59.6275 79.6212Z" fill="#51AE4E"/>
<path d="M84.1037 105.924H187.206C190.479 105.924 192.567 103.27 191.871 99.9968L171.872 5.92764C171.176 2.65455 167.954 0 164.681 0H61.5915C58.3184 0 56.2309 2.65455 56.9267 5.92764L76.9261 100.01C77.622 103.283 80.8306 105.937 84.1037 105.937V105.924Z" fill="white"/>
<path d="M172.928 10.9275L171.859 5.91476C171.176 2.65455 167.954 0 164.681 0H61.5915C58.3184 0 56.2309 2.65455 56.9267 5.92764L57.9963 10.9404H172.928V10.9275Z" fill="#40477D"/>
<path d="M77.313 5.46353C77.5965 6.77792 78.8851 7.84748 80.1995 7.84748C81.5139 7.84748 82.3515 6.77792 82.0809 5.46353C81.7974 4.14914 80.5088 3.07959 79.1944 3.07959C77.88 3.07959 77.0424 4.14914 77.313 5.46353Z" fill="#BEB2BD"/>
<path d="M69.6709 5.46353C69.9544 6.77792 71.243 7.84748 72.5574 7.84748C73.8718 7.84748 74.7094 6.77792 74.4388 5.46353C74.1553 4.14914 72.8667 3.07959 71.5523 3.07959C70.2379 3.07959 69.4003 4.14914 69.6709 5.46353Z" fill="#BEB2BD"/>
<path d="M62.0166 5.46353C62.3001 6.77792 63.5887 7.84748 64.9031 7.84748C66.2175 7.84748 67.0551 6.77792 66.7845 5.46353C66.501 4.14914 65.2124 3.07959 63.898 3.07959C62.5836 3.07959 61.746 4.14914 62.0166 5.46353Z" fill="#BEB2BD"/>
<path d="M106.578 50.2175C106.822 51.2355 106.139 52.0474 105.044 52.0474H79.3748C78.2923 52.0474 77.2099 51.2227 76.9779 50.2175C76.7331 49.1995 77.4161 48.3877 78.5114 48.3877H104.181C105.263 48.3877 106.346 49.2124 106.578 50.2175Z" fill="#FA7561"/>
<path d="M112.325 74.3921C112.57 75.4101 111.887 76.2219 110.792 76.2219H85.1223C84.0399 76.2219 82.9574 75.3972 82.7255 74.3921C82.4807 73.387 83.1636 72.5623 84.259 72.5623H109.928C111.011 72.5623 112.093 73.387 112.325 74.3921Z" fill="#A3D645"/>
<path d="M144.579 64.2892L140.571 47.4341H157.426L161.434 64.2892H144.579ZM158.496 61.9182L155.609 49.7923H143.484L146.37 61.9182H158.496Z" fill="#FA7561"/>
<path d="M160.609 63.6321H145.082L141.383 48.1042H156.911L160.609 63.6321ZM145.881 62.5883H159.321L156.125 49.148H142.685L145.881 62.5883Z" fill="#FA7561"/>
<path d="M147.027 59.1217L153.019 51.4028L155.081 53.078L149.076 60.8355L147.027 59.1217Z" fill="#FA7561"/>
<path d="M146.924 51.377L156.511 59.1989L155.223 60.8612L145.597 53.0135L146.924 51.377Z" fill="#FA7561"/>
<path d="M151.035 88.7858L147.027 71.9307H163.882L167.89 88.7858H151.035ZM164.952 86.4276L162.066 74.3017H149.94L152.826 86.4276H164.952Z" fill="#A3D645"/>
<path d="M167.065 88.1287H151.537L147.839 72.6008H163.367L167.065 88.1287ZM152.336 87.0849H165.776L162.581 73.6446H149.14L152.336 87.0849Z" fill="#A3D645"/>
<path d="M130.649 55.4363C130.817 56.1193 130.353 56.6605 129.618 56.6605H79.9419C79.2202 56.6605 78.4986 56.1064 78.3311 55.4363C78.1636 54.7534 78.6275 54.2122 79.362 54.2122H129.051C129.786 54.2122 130.494 54.7663 130.662 55.4363H130.649Z" fill="#BCBCBC"/>
<path d="M131.68 59.753C131.847 60.436 131.384 60.9772 130.649 60.9772H80.9599C80.2383 60.9772 79.5167 60.4231 79.3492 59.753C79.1816 59.07 79.6456 58.5288 80.3801 58.5288H130.069C130.804 58.5288 131.512 59.0829 131.68 59.753Z" fill="#BCBCBC"/>
<path d="M98.8844 64.0186C99.0519 64.7016 98.588 65.2428 97.8535 65.2428H81.9648C81.2432 65.2428 80.5216 64.6887 80.3541 64.0186C80.1865 63.3357 80.6504 62.7944 81.3849 62.7944H97.2736C98.0081 62.7944 98.7169 63.3485 98.8844 64.0186Z" fill="#BCBCBC"/>
<path d="M136.396 79.6109C136.564 80.2939 136.1 80.8351 135.365 80.8351H85.6889C84.9673 80.8351 84.2457 80.281 84.0782 79.6109C83.9107 78.9279 84.3746 78.3867 85.1091 78.3867H134.798C135.533 78.3867 136.241 78.9408 136.409 79.6109H136.396Z" fill="#BCBCBC"/>
<path d="M137.427 83.9146C137.595 84.5976 137.131 85.1388 136.396 85.1388H86.707C85.9854 85.1388 85.2638 84.5847 85.0962 83.9146C84.9287 83.2317 85.3926 82.6904 86.1271 82.6904H135.816C136.551 82.6904 137.26 83.2445 137.427 83.9146Z" fill="#BCBCBC"/>
<path d="M104.645 88.1929C104.812 88.8759 104.348 89.4171 103.614 89.4171H87.7251C87.0035 89.4171 86.2818 88.863 86.1143 88.1929C85.9468 87.51 86.4107 86.9688 87.1452 86.9688H103.034C103.768 86.9688 104.477 87.5229 104.645 88.1929Z" fill="#BCBCBC"/>
<path d="M138.458 40.9779L134.45 24.1228H151.305L155.313 40.9779H138.458ZM152.375 38.6069L149.488 26.481H137.362L140.249 38.6069H152.375Z" fill="#A3D645"/>
<path d="M154.501 40.3079H138.961L135.262 24.78H150.803L154.501 40.3079ZM139.772 39.2641H153.213L150.017 25.8238H136.577L139.772 39.2641Z" fill="#A3D645"/>
<path d="M138.767 32.1638L140.043 30.4886L144.282 33.9163L147.826 27.3057L150.043 28.7489L145.365 37.4858L138.767 32.1638Z" fill="#A3D645"/>
<path d="M145.068 36.4934L139.708 32.1637L140.275 31.4163L144.591 34.9084L148.161 28.2334L149.14 28.8648L145.068 36.4934Z" fill="#A3D645"/>
<path d="M100.908 26.5969C101.152 27.6149 100.469 28.4268 99.3741 28.4268H73.7048C72.6224 28.4268 71.54 27.6021 71.308 26.5969C71.0632 25.5789 71.7461 24.7671 72.8415 24.7671H98.5107C99.5932 24.7671 100.676 25.5918 100.908 26.5969Z" fill="#A3D645"/>
<path d="M124.979 31.816C125.147 32.499 124.683 33.0402 123.948 33.0402H74.272C73.5503 33.0402 72.8287 32.4861 72.6612 31.816C72.4937 31.133 72.9576 30.5918 73.6921 30.5918H123.381C124.116 30.5918 124.824 31.1459 124.992 31.816H124.979Z" fill="#BCBCBC"/>
<path d="M126.01 36.1199C126.178 36.8029 125.714 37.3441 124.979 37.3441H75.29C74.5684 37.3441 73.8468 36.79 73.6792 36.1199C73.5117 35.437 73.9756 34.8958 74.7101 34.8958H124.399C125.134 34.8958 125.843 35.4499 126.01 36.1199Z" fill="#BCBCBC"/>
<path d="M93.2276 40.398C93.3952 41.081 92.9313 41.6222 92.1968 41.6222H76.3081C75.5865 41.6222 74.8648 41.0681 74.6973 40.398C74.5298 39.715 74.9937 39.1738 75.7282 39.1738H91.6169C92.3385 39.1738 93.0601 39.7279 93.2276 40.398Z" fill="#BCBCBC"/>
<path d="M155.815 78.1935V95.01C155.815 95.6027 156.176 96.1311 156.717 96.363C157.258 96.595 157.89 96.4661 158.302 96.0409L162.787 91.5565L174.874 103.644L182.709 95.8089L170.621 83.7217L175.106 79.2373C175.518 78.8249 175.647 78.1935 175.428 77.6523C175.351 77.4719 175.248 77.3172 175.106 77.1755C174.835 76.9049 174.474 76.7502 174.075 76.7502H157.258C156.872 76.7502 156.498 76.9049 156.227 77.1755C155.957 77.4461 155.802 77.8198 155.802 78.2064L155.815 78.1935Z" fill="#4C4748"/>
<path d="M56.7883 38.2494C56.882 38.1632 56.9483 38.0542 56.9796 37.9347C57.0109 37.8152 57.0061 37.6898 56.9657 37.5727C56.9253 37.4556 56.8509 37.3514 56.7508 37.2716C56.6507 37.1919 56.5289 37.1398 56.399 37.1211L51.0503 36.3921C50.9371 36.3766 50.8296 36.3352 50.7374 36.2717C50.6453 36.2081 50.5713 36.1242 50.5219 36.0275L48.1303 31.4882C48.0721 31.377 47.9817 31.2834 47.8695 31.2179C47.7572 31.1524 47.6276 31.1177 47.4954 31.1177C47.3631 31.1177 47.2335 31.1524 47.1213 31.2179C47.009 31.2834 46.9186 31.377 46.8604 31.4882L44.4781 36.0275C44.4261 36.1224 44.3514 36.2047 44.2597 36.268C44.168 36.3312 44.0619 36.3737 43.9497 36.3921L38.601 37.1211C38.4711 37.1398 38.3493 37.1919 38.2492 37.2716C38.1491 37.3514 38.0747 37.4556 38.0343 37.5727C37.9939 37.6898 37.9891 37.8152 38.0204 37.9347C38.0517 38.0542 38.118 38.1632 38.2117 38.2494L42.0772 41.782C42.1582 41.8567 42.219 41.9484 42.2544 42.0496C42.2899 42.1507 42.2991 42.2583 42.2811 42.3635L41.3727 47.3454C41.3505 47.4674 41.3654 47.5927 41.4154 47.7071C41.4655 47.8215 41.5489 47.9205 41.656 47.9928C41.7632 48.0652 41.8899 48.1079 42.0217 48.1162C42.1535 48.1245 42.2851 48.098 42.4016 48.0398L47.1848 45.6877C47.2859 45.6364 47.399 45.6095 47.5139 45.6095C47.6288 45.6095 47.7419 45.6364 47.843 45.6877L52.6262 48.0398C52.7428 48.0966 52.8741 48.122 53.0052 48.1131C53.1364 48.1042 53.2624 48.0613 53.3691 47.9893C53.4757 47.9173 53.559 47.819 53.6095 47.7053C53.66 47.5916 53.6758 47.467 53.6551 47.3454L52.7374 42.3635C52.718 42.2583 52.7265 42.1503 52.7621 42.0489C52.7976 41.9476 52.8592 41.8559 52.9413 41.782L56.7883 38.2494Z" fill="#C5C8D6"/>
</g>
<path d="M22.5274 38.8784C22.6398 38.7724 22.7192 38.6385 22.7568 38.4917C22.7943 38.3449 22.7886 38.1909 22.7401 38.0471C22.6917 37.9032 22.6025 37.7752 22.4824 37.6772C22.3624 37.5792 22.2164 37.5152 22.0606 37.4923L15.6475 36.5967C15.5117 36.5777 15.3829 36.5269 15.2724 36.4488C15.1619 36.3707 15.0731 36.2677 15.014 36.1489L12.1464 30.5729C12.0766 30.4363 11.9682 30.3212 11.8336 30.2408C11.699 30.1603 11.5436 30.1177 11.3851 30.1177C11.2265 30.1177 11.0711 30.1603 10.9365 30.2408C10.8019 30.3212 10.6936 30.4363 10.6237 30.5729L7.76728 36.1489C7.70499 36.2655 7.61536 36.3666 7.50543 36.4443C7.39549 36.522 7.26826 36.5742 7.13375 36.5967L0.720646 37.4923C0.564874 37.5152 0.41881 37.5792 0.298801 37.6772C0.178792 37.7752 0.0895714 37.9032 0.0411241 38.0471C-0.00732309 38.1909 -0.0130862 38.3449 0.0244801 38.4917C0.0620464 38.6385 0.141461 38.7724 0.253835 38.8784L4.88861 43.2177C4.98573 43.3095 5.05859 43.4222 5.10113 43.5464C5.14366 43.6707 5.15463 43.8029 5.13313 43.932L4.0439 50.0519C4.01735 50.2016 4.03511 50.3556 4.09516 50.4961C4.15522 50.6367 4.25516 50.7583 4.38365 50.8471C4.51214 50.936 4.66401 50.9885 4.82204 50.9987C4.98006 51.0088 5.13789 50.9763 5.27762 50.9048L11.0127 48.0155C11.1339 47.9525 11.2695 47.9195 11.4073 47.9195C11.5451 47.9195 11.6807 47.9525 11.8019 48.0155L17.537 50.9048C17.6769 50.9746 17.8342 51.0058 17.9915 50.9948C18.1488 50.9839 18.2998 50.9313 18.4277 50.8428C18.5556 50.7544 18.6554 50.6336 18.716 50.4939C18.7766 50.3543 18.7955 50.2012 18.7707 50.0519L17.6704 43.932C17.6471 43.8028 17.6573 43.6702 17.6999 43.5457C17.7425 43.4211 17.8163 43.3085 17.9149 43.2177L22.5274 38.8784Z" fill="#FFBB0E"/>
<path d="M45.0366 15.0641C45.1864 14.9195 45.2923 14.737 45.3424 14.5368C45.3924 14.3366 45.3848 14.1267 45.3202 13.9305C45.2556 13.7343 45.1366 13.5597 44.9766 13.4261C44.8166 13.2925 44.6218 13.2052 44.4141 13.174L35.8633 11.9528C35.6823 11.9268 35.5105 11.8576 35.3631 11.7511C35.2158 11.6446 35.0975 11.5041 35.0186 11.3421L31.1952 3.73838C31.1021 3.55215 30.9576 3.39527 30.7782 3.28555C30.5987 3.17584 30.3915 3.11768 30.1801 3.11768C29.9687 3.11768 29.7615 3.17584 29.582 3.28555C29.4026 3.39527 29.2581 3.55215 29.165 3.73838L25.3564 11.3421C25.2733 11.5011 25.1538 11.639 25.0072 11.7449C24.8607 11.8509 24.691 11.922 24.5117 11.9528L15.9609 13.174C15.7532 13.2052 15.5584 13.2925 15.3984 13.4261C15.2384 13.5597 15.1194 13.7343 15.0548 13.9305C14.9902 14.1267 14.9826 14.3366 15.0326 14.5368C15.0827 14.737 15.1886 14.9195 15.3384 15.0641L21.5181 20.9813C21.6476 21.1065 21.7448 21.2602 21.8015 21.4296C21.8582 21.599 21.8728 21.7793 21.8442 21.9554L20.3919 30.3007C20.3565 30.5049 20.3801 30.7148 20.4602 30.9065C20.5403 31.0982 20.6736 31.264 20.8449 31.3851C21.0162 31.5063 21.2187 31.5778 21.4294 31.5917C21.6401 31.6056 21.8505 31.5613 22.0368 31.4638L29.6836 27.5238C29.8452 27.4379 30.026 27.3929 30.2097 27.3929C30.3935 27.3929 30.5743 27.4379 30.7358 27.5238L38.3826 31.4638C38.5692 31.5589 38.779 31.6015 38.9887 31.5865C39.1983 31.5716 39.3997 31.4999 39.5703 31.3793C39.7408 31.2587 39.8739 31.094 39.9547 30.9035C40.0354 30.7131 40.0607 30.5044 40.0276 30.3007L38.5605 21.9554C38.5295 21.7793 38.543 21.5984 38.5999 21.4286C38.6567 21.2587 38.7551 21.1052 38.8865 20.9813L45.0366 15.0641Z" fill="#FFBB0E"/>
<defs>
<clipPath id="clip0_2030_2382">
<rect width="161" height="161.258" fill="white" transform="translate(31)"/>
</clipPath>
</defs>
</svg>
