<svg width="65" height="67" viewBox="0 0 65 67" fill="none" xmlns="http://www.w3.org/2000/svg">
<path d="M33.4204 62.9631C28.3902 62.9602 23.4337 61.7532 18.9653 59.4432C14.4969 57.1331 10.6464 53.7871 7.73548 49.6847C4.8246 45.5823 2.93795 40.8427 2.23323 35.8621C1.52851 30.8815 2.02618 25.8046 3.68466 21.0557C1.80532 24.9115 0.733194 29.1105 0.533992 33.3954C0.334789 37.6802 1.01271 41.9606 2.5262 45.9742C4.03969 49.9878 6.35686 53.65 9.3357 56.7364C12.3145 59.8228 15.8923 62.2684 19.8497 63.9233C23.8071 65.5782 28.0607 66.4074 32.3499 66.3603C36.6391 66.3132 40.8735 65.3906 44.7936 63.6492C48.7137 61.9078 52.2368 59.3842 55.1471 56.2331C58.0575 53.0819 60.2936 49.3697 61.7185 45.3238C59.1255 50.6162 55.0997 55.075 50.0987 58.1932C45.0977 61.3114 39.3222 62.964 33.4287 62.9631" fill="#96C222"/>
<path d="M31.9767 3.41643C37.0076 3.41707 41.9653 4.62235 46.4351 6.93146C50.9048 9.24056 54.7567 12.5864 57.6685 16.689C60.5804 20.7917 62.4675 25.532 63.1721 30.5134C63.8768 35.4948 63.3784 40.5724 61.7186 45.3218C63.6009 41.4661 64.6758 37.2666 64.8772 32.9807C65.0787 28.6949 64.4025 24.413 62.8901 20.3978C61.3777 16.3826 59.0611 12.7187 56.0822 9.63073C53.1033 6.54277 49.5251 4.09588 45.5668 2.44014C41.6086 0.784387 37.3538 -0.0453167 33.0635 0.00190839C28.7732 0.0491334 24.5377 0.972292 20.6169 2.71477C16.6961 4.45724 13.1725 6.9823 10.2623 10.1351C7.35218 13.2879 5.11673 17.0019 3.69312 21.0494C6.28667 15.757 10.3129 11.2983 15.3142 8.18015C20.3155 5.06197 26.0913 3.40935 31.985 3.41015" fill="#96C222"/>
<g style="mix-blend-mode:multiply">
<path d="M33.4202 62.9631C39.3152 62.9656 45.0925 61.3137 50.0951 58.1954C55.0977 55.0771 59.1248 50.6175 61.7184 45.3239C64.3753 37.7428 64.0357 29.4331 60.7691 22.0941C57.5026 14.755 51.5558 8.94107 44.1449 5.84106C36.734 2.74104 28.4188 2.58916 20.8996 5.41646C13.3804 8.24377 7.22532 13.8367 3.69293 21.0515C2.03385 25.8 1.53543 30.8767 2.23932 35.8572C2.94322 40.8377 4.82898 45.5773 7.739 49.6801C10.649 53.7829 14.4988 57.1295 18.9665 59.4403C23.4343 61.7512 28.3903 62.9591 33.4202 62.9631Z" fill="#3375BA"/>
</g>
<path d="M33.4203 62.9631C39.3152 62.9656 45.0925 61.3137 50.0951 58.1954C55.0977 55.0771 59.1248 50.6175 61.7184 45.3239C64.3753 37.7428 64.0357 29.4331 60.7691 22.0941C57.5026 14.755 51.5558 8.94107 44.1449 5.84106C36.734 2.74104 28.4188 2.58916 20.8996 5.41646C13.3804 8.24377 7.22532 13.8367 3.69293 21.0515C2.03385 25.8 1.53543 30.8767 2.23932 35.8572C2.94322 40.8377 4.82898 45.5773 7.739 49.6801C10.649 53.7829 14.4988 57.1295 18.9665 59.4403C23.4343 61.7512 28.3903 62.9591 33.4203 62.9631" fill="#52AE32"/>
<path d="M11.5899 16.4626L10.6818 16.5149L10.7885 18.2914L9.86573 18.3479L9.58325 13.6294L11.412 13.5206C12.3871 13.462 13.0107 14.096 13.0588 14.8974C13.1069 15.6988 12.5629 16.404 11.5941 16.4626M11.4162 14.3367L10.5541 14.3869L10.6316 15.68L11.4999 15.6361C11.5852 15.6306 11.6687 15.6083 11.7454 15.5706C11.8221 15.5329 11.8906 15.4804 11.9471 15.4162C12.0035 15.352 12.0468 15.2773 12.0743 15.1963C12.1019 15.1154 12.1133 15.0298 12.1078 14.9445C12.1023 14.8592 12.08 14.7758 12.0423 14.6991C12.0046 14.6223 11.9521 14.5538 11.8879 14.4974C11.8237 14.4409 11.749 14.3977 11.668 14.3701C11.5871 14.3425 11.5016 14.3312 11.4162 14.3367Z" fill="#2D2F7F"/>
<path d="M16.7309 17.4567C16.4084 17.8083 15.9618 18.0208 15.4854 18.0493C15.0091 18.0778 14.5404 17.9201 14.1782 17.6094C13.6739 17.1616 13.6509 16.5632 13.6027 15.7555C13.5546 14.9478 13.5044 14.3515 13.9522 13.8451C14.275 13.494 14.7216 13.2818 15.1977 13.2533C15.6739 13.2248 16.1425 13.3822 16.505 13.6924C17.0092 14.1422 17.0385 14.7386 17.0867 15.5463C17.1348 16.354 17.1787 16.9503 16.7309 17.4567ZM15.8542 14.2908C15.7748 14.2139 15.6795 14.1553 15.575 14.1192C15.4706 14.083 15.3594 14.0702 15.2495 14.0816C15.1379 14.0847 15.0284 14.112 14.9283 14.1615C14.8283 14.211 14.7401 14.2815 14.6699 14.3682C14.5025 14.5775 14.4606 14.7993 14.5234 15.7074C14.5862 16.6155 14.6364 16.831 14.8289 17.0193C14.9104 17.0943 15.0062 17.152 15.1106 17.1891C15.2149 17.2262 15.3256 17.2419 15.4362 17.2353C15.5467 17.2286 15.6548 17.1998 15.7539 17.1505C15.8531 17.1011 15.9413 17.0324 16.0132 16.9482C16.1806 16.739 16.2225 16.5151 16.166 15.609C16.1095 14.703 16.0467 14.4854 15.8542 14.2971" fill="#2D2F7F"/>
<path d="M19.7108 17.7956C18.742 17.8541 17.9343 17.2452 17.8757 16.243L17.6895 13.1441L18.6143 13.0813L18.7984 16.1488C18.8298 16.6928 19.1688 16.9983 19.6647 16.969C20.1606 16.9397 20.4682 16.5945 20.4347 16.0505L20.2464 12.9892L21.1608 12.9348L21.347 16.0358C21.4077 17.036 20.6775 17.737 19.7108 17.7956Z" fill="#2D2F7F"/>
<path d="M24.8499 17.4482L23.8162 15.6215L23.155 15.6613L23.268 17.5445L22.3452 17.601L22.0627 12.872L23.9125 12.7611C24.8729 12.7026 25.4818 13.3261 25.5278 14.1129C25.5523 14.384 25.4891 14.6557 25.3475 14.8882C25.2058 15.1206 24.9932 15.3014 24.7411 15.4039L25.917 17.375L24.8499 17.4482ZM23.902 13.5939L23.0336 13.6462L23.109 14.9017L23.9752 14.8515C24.0577 14.8467 24.1384 14.8257 24.2127 14.7897C24.287 14.7537 24.3535 14.7034 24.4084 14.6417C24.4633 14.58 24.5055 14.5082 24.5326 14.4302C24.5597 14.3521 24.5712 14.2696 24.5664 14.1871C24.5615 14.1047 24.5405 14.024 24.5046 13.9497C24.4686 13.8754 24.4183 13.8089 24.3566 13.754C24.2949 13.6991 24.223 13.6569 24.145 13.6298C24.067 13.6027 23.9844 13.5912 23.902 13.596" fill="#2D2F7F"/>
<path d="M24.2031 32.9762L19.629 33.2734L18.9197 22.3425L23.3138 22.0579C25.4481 21.9198 26.7684 23.0351 26.8919 24.9078C26.9252 25.3717 26.8304 25.8358 26.6178 26.2494C26.4053 26.6631 26.0831 27.0104 25.6866 27.2534C26.3667 27.5171 27.256 28.1532 27.3501 29.6116C27.482 31.6538 26.1574 32.8486 24.2115 32.9762M23.274 23.9787L21.1816 24.1127L21.3448 26.6236L23.4373 26.4876C24.3433 26.429 24.8162 25.8891 24.7681 25.138C24.7199 24.3868 24.178 23.9118 23.274 23.9704M23.6925 28.398L21.4662 28.5424L21.6419 31.2291L23.8662 31.0847C24.835 31.0219 25.2556 30.3774 25.2075 29.6409C25.1593 28.9044 24.6613 28.3352 23.6925 28.398Z" fill="white"/>
<path d="M31.0044 18.5409L27.759 18.7356L29.1688 42.2316L32.4142 42.0369L31.0044 18.5409Z" fill="white"/>
<path d="M30.6352 13.0903L27.4468 13.2976L27.6599 16.5758L30.8483 16.3685L30.6352 13.0903Z" fill="white"/>
<path d="M33.9706 32.3421L33.2612 21.4112L40.4613 20.9446L40.5848 22.8487L35.519 23.1772L35.6864 25.7405L39.9989 25.4622L40.1223 27.3642L35.8077 27.6446L35.9814 30.2999L41.0472 29.9714L41.1707 31.8755L33.9706 32.3421Z" fill="white"/>
<path d="M48.4209 27.1657L43.6564 20.7377L44.0917 27.4482L41.9574 27.5863L41.248 16.6554L43.1522 16.5319L47.9146 22.9431L47.4814 16.2494L49.6157 16.1113L50.323 27.0422L48.4209 27.1657Z" fill="white"/>
<path d="M12.2951 46.9475L10.6985 47.05L6.38184 36.3535L8.59355 36.2091L11.2489 43.1916L12.9835 35.9245L15.2098 35.7822L12.2951 46.9475Z" fill="#2D2F7F"/>
<path d="M18.3143 35.7333L16.1758 35.8616L16.833 46.8155L18.9715 46.6872L18.3143 35.7333Z" fill="#2D2F7F"/>
<path d="M20.4808 46.4161L19.7715 35.4852L26.9716 35.0186L27.095 36.9206L22.0292 37.2491L22.1966 39.8123L26.5091 39.534L26.6347 41.4382L22.3201 41.7165L22.4917 44.3739L27.5575 44.0454L27.6809 45.9495L20.4808 46.4161Z" fill="#2D2F7F"/>
<path d="M42.3675 44.9974L41.6582 34.0644L43.7925 33.9263L44.3784 42.9531L48.3791 42.6957L48.5026 44.5977L42.3675 44.9974Z" fill="#2D2F7F"/>
<path d="M34.8768 45.4827L34.1675 34.5518L36.3018 34.4116L36.8877 43.4405L40.8863 43.181L41.0098 45.0831L34.8768 45.4827Z" fill="#2D2F7F"/>
<path d="M50.7002 31.6165L48.5662 31.7549L49.2192 41.8256L51.3532 41.6872L50.7002 31.6165Z" fill="#2D2F7F"/>
<path d="M58.8561 43.9259L56.4393 39.7055L54.9034 39.8038L55.1859 44.1644L53.0516 44.3025L52.3423 33.3779L56.6276 33.0996C58.854 32.9552 60.2706 34.3907 60.394 36.2174C60.4516 36.8448 60.3064 37.4743 59.9799 38.0132C59.6534 38.5521 59.1627 38.9722 58.5799 39.2116L61.3272 43.7669L58.8561 43.9259ZM56.6109 35.0079L54.6 35.1377L54.7884 38.0231L56.7992 37.8934C57.7366 37.8327 58.3099 37.1924 58.2639 36.3492C58.2179 35.5059 57.5567 34.9451 56.6192 35.0079" fill="#2D2F7F"/>
<path d="M50.481 28.2746L48.3491 28.4128L48.4924 30.622L50.6243 30.4838L50.481 28.2746Z" fill="#2D2F7F"/>
<path d="M18.1546 31.9719L16.0227 32.1101L16.166 34.3193L18.2979 34.181L18.1546 31.9719Z" fill="#2D2F7F"/>
</svg>
