<svg width="28" height="28" viewBox="0 0 28 28" fill="none" xmlns="http://www.w3.org/2000/svg">
<path d="M2.16814 0.986816L0.78418 2.37078L25.7898 27.3764L27.1728 25.9934L20.831 19.6525C24.0173 17.6646 26.1322 15.0496 26.2706 14.8726L26.4813 14.6033V13.731L26.2408 13.4608C25.9975 13.1742 20.253 6.48708 13.9794 6.48708C12.1502 6.48708 10.4402 6.99778 8.90042 7.71909L2.16814 0.986816ZM13.9794 8.41059C18.4497 8.41059 22.9055 12.7192 24.3183 14.2109C23.5364 15.0938 21.7677 16.9048 19.4489 18.2686L17.2859 16.1046C17.7157 15.3711 17.8898 14.5157 17.781 13.6726C17.6722 12.8295 17.2867 12.0463 16.6848 11.4459C15.4192 10.1802 13.5303 10.0109 12.0569 10.8746L10.3738 9.19153C11.5116 8.7347 12.7138 8.41059 13.9794 8.41059ZM6.04497 9.40216C3.46747 11.2545 1.81133 13.3357 1.68727 13.4896L1.47664 13.73V14.6322L1.71708 14.9024C1.96906 15.1881 7.93866 21.8751 13.9794 21.8751C15.324 21.8751 16.6243 21.6126 17.8265 21.1836L6.04497 9.40216ZM6.64607 11.3863L15.122 19.8612C14.7437 19.918 14.3619 19.9482 13.9794 19.9516C13.5047 19.9476 13.0316 19.8974 12.5666 19.8016L5.2948 12.498C5.73009 12.109 6.18121 11.7381 6.64703 11.3863H6.64607ZM4.57253 13.1597L10.6431 19.1995C7.52511 17.9012 4.72641 15.2592 3.64059 14.1503C3.86564 13.8955 4.18879 13.5387 4.57253 13.1597Z" fill="#525050"/>
<path d="M2.16814 0.986816L0.78418 2.37078L25.7898 27.3764L27.1728 25.9934L20.831 19.6525C24.0173 17.6646 26.1322 15.0496 26.2706 14.8726L26.4813 14.6033V13.731L26.2408 13.4608C25.9975 13.1742 20.253 6.48708 13.9794 6.48708C12.1502 6.48708 10.4402 6.99778 8.90042 7.71909L2.16814 0.986816ZM13.9794 8.41059C18.4497 8.41059 22.9055 12.7192 24.3183 14.2109C23.5364 15.0938 21.7677 16.9048 19.4489 18.2686L17.2859 16.1046C17.7157 15.3711 17.8898 14.5157 17.781 13.6726C17.6722 12.8295 17.2867 12.0463 16.6848 11.4459C15.4192 10.1802 13.5303 10.0109 12.0569 10.8746L10.3738 9.19153C11.5116 8.7347 12.7138 8.41059 13.9794 8.41059ZM6.04497 9.40216C3.46747 11.2545 1.81133 13.3357 1.68727 13.4896L1.47664 13.73V14.6322L1.71708 14.9024C1.96906 15.1881 7.93866 21.8751 13.9794 21.8751C15.324 21.8751 16.6243 21.6126 17.8265 21.1836L6.04497 9.40216ZM6.64607 11.3863L15.122 19.8612C14.7437 19.918 14.3619 19.9482 13.9794 19.9516C13.5047 19.9476 13.0316 19.8974 12.5666 19.8016L5.2948 12.498C5.73009 12.109 6.18121 11.7381 6.64703 11.3863H6.64607ZM4.57253 13.1597L10.6431 19.1995C7.52511 17.9012 4.72641 15.2592 3.64059 14.1503C3.86564 13.8955 4.18879 13.5387 4.57253 13.1597Z" fill="black" fill-opacity="0.2"/>
</svg>
