<svg width="22" height="24" viewBox="0 0 22 24" fill="none" xmlns="http://www.w3.org/2000/svg">
<path fill-rule="evenodd" clip-rule="evenodd" d="M14.8746 9.5835C14.8746 12.8052 12.2629 15.4168 9.04126 15.4168C5.8196 15.4168 3.20793 12.8052 3.20793 9.5835C3.20793 6.36184 5.8196 3.75016 9.04126 3.75016C12.2629 3.75016 14.8746 6.36184 14.8746 9.5835ZM13.2136 17.2766C11.9734 17.9506 10.5521 18.3335 9.04126 18.3335C4.20877 18.3335 0.29126 14.416 0.29126 9.5835C0.29126 4.751 4.20877 0.833496 9.04126 0.833496C13.8738 0.833496 17.7913 4.751 17.7913 9.5835C17.7913 11.8461 16.9325 13.9081 15.5231 15.4613L20.2808 20.219L21.312 21.2502L19.2496 23.3126L18.2184 22.2814L13.2136 17.2766Z" fill="#525050"/>
<path fill-rule="evenodd" clip-rule="evenodd" d="M14.8746 9.5835C14.8746 12.8052 12.2629 15.4168 9.04126 15.4168C5.8196 15.4168 3.20793 12.8052 3.20793 9.5835C3.20793 6.36184 5.8196 3.75016 9.04126 3.75016C12.2629 3.75016 14.8746 6.36184 14.8746 9.5835ZM13.2136 17.2766C11.9734 17.9506 10.5521 18.3335 9.04126 18.3335C4.20877 18.3335 0.29126 14.416 0.29126 9.5835C0.29126 4.751 4.20877 0.833496 9.04126 0.833496C13.8738 0.833496 17.7913 4.751 17.7913 9.5835C17.7913 11.8461 16.9325 13.9081 15.5231 15.4613L20.2808 20.219L21.312 21.2502L19.2496 23.3126L18.2184 22.2814L13.2136 17.2766Z" fill="black" fill-opacity="0.2"/>
</svg>
