<svg width="19" height="16" viewBox="0 0 19 16" fill="none" xmlns="http://www.w3.org/2000/svg">
<path d="M15.7222 4.44444H3.27778C1.80223 4.44444 0.611115 5.63556 0.611115 7.11111V12.4444H4.16667V16H14.8333V12.4444H18.3889V7.11111C18.3889 5.63556 17.1978 4.44444 15.7222 4.44444ZM13.0556 14.2222H5.94445V9.77778H13.0556V14.2222ZM15.7222 8C15.2333 8 14.8333 7.6 14.8333 7.11111C14.8333 6.62222 15.2333 6.22222 15.7222 6.22222C16.2111 6.22222 16.6111 6.62222 16.6111 7.11111C16.6111 7.6 16.2111 8 15.7222 8ZM14.8333 0H4.16667V3.55556H14.8333V0Z" fill="#2D2F7F"/>
</svg>
