<svg width="18" height="21" viewBox="0 0 18 21" fill="none" xmlns="http://www.w3.org/2000/svg">
<path d="M14.78 14.3967C14.0504 14.3967 13.3976 14.6847 12.8984 15.1359L6.0536 11.1519C6.1016 10.9311 6.14 10.7103 6.14 10.4799C6.14 10.2495 6.1016 10.0287 6.0536 9.80788L12.8216 5.86228C13.34 6.34228 14.0216 6.63988 14.78 6.63988C16.3736 6.63988 17.66 5.35348 17.66 3.75988C17.66 2.16628 16.3736 0.879883 14.78 0.879883C13.1864 0.879883 11.9 2.16628 11.9 3.75988C11.9 3.99028 11.9384 4.21108 11.9864 4.43188L5.2184 8.37748C4.7 7.89748 4.0184 7.59988 3.26 7.59988C1.6664 7.59988 0.38 8.88628 0.38 10.4799C0.38 12.0735 1.6664 13.3599 3.26 13.3599C4.0184 13.3599 4.7 13.0623 5.2184 12.5823L12.0536 16.5759C12.0056 16.7775 11.9768 16.9887 11.9768 17.1999C11.9768 18.7455 13.2344 20.0031 14.78 20.0031C16.3256 20.0031 17.5832 18.7455 17.5832 17.1999C17.5832 15.6543 16.3256 14.3967 14.78 14.3967Z" fill="#2D2F7F"/>
</svg>
