<svg width="81" height="80" viewBox="0 0 81 80" fill="none" xmlns="http://www.w3.org/2000/svg">

<path d="M46.787 50.2393L46.0756 39.9386L45.4237 30.5081L54.8624 29.8558C55.3429 29.8224 55.7045 29.4069 55.6711 28.926L54.9596 18.6253C54.9437 18.3943 54.8362 18.1792 54.662 18.0282C54.4878 17.8771 54.2613 17.8001 54.0304 17.816L43.7367 18.5279L33.4429 19.2398L23.1491 19.9517C22.6685 19.9851 22.307 20.4007 22.3404 20.8816L23.0518 31.1823C23.0837 31.6428 23.4656 31.9944 23.92 31.9944C23.9403 31.9944 23.9607 31.9944 23.981 31.993L33.392 31.3421L33.983 39.8878L24.5588 40.5401C24.5588 40.5401 24.5458 40.5415 24.5385 40.543L14.2781 41.252C13.7975 41.2854 13.436 41.7009 13.4694 42.1818L14.1808 52.4825C14.2128 52.9431 14.5946 53.2947 15.0491 53.2947C15.0694 53.2947 15.0897 53.2947 15.11 53.2932L25.4038 52.5813C25.4038 52.5813 25.4169 52.5799 25.4242 52.5784L34.8134 51.929L35.4653 61.374C35.4813 61.605 35.5887 61.82 35.763 61.9711C35.9227 62.1091 36.1259 62.1861 36.335 62.1861C36.3553 62.1861 36.3757 62.1861 36.3945 62.1847L46.6883 61.4728C47.1689 61.4393 47.5304 61.0238 47.497 60.5429L46.7856 50.2422L46.787 50.2393ZM26.1545 50.7783L25.5635 42.2167L34.1035 41.6254L34.6944 50.187L26.1545 50.7783ZM42.9889 20.3266L43.5799 28.8868C40.7893 29.08 36.7793 29.3575 35.024 29.4781L34.7278 25.198L34.4316 20.9179L42.9875 20.3266H42.9889ZM43.6858 30.6287L44.2768 39.1889L39.9995 39.4853L35.7223 39.7817L35.1314 31.2215L43.6873 30.6302L43.6858 30.6287ZM36.4337 50.081L35.8428 41.5193L40.12 41.2229L44.3973 40.9265L44.9882 49.4882L40.7109 49.7846L36.4337 50.081ZM53.8736 28.1763L45.3177 28.7676L44.7268 20.206L53.2827 19.6147L53.8736 28.1763ZM24.1393 21.6298L32.6951 21.0385L32.9913 25.3186L33.2875 29.5987L24.7316 30.19L24.1407 21.6283L24.1393 21.6298ZM15.2683 42.9286L23.8097 42.3373L24.4006 50.8989L15.8592 51.4902L15.2683 42.9286V42.9286ZM37.1437 60.3817L36.5528 51.82L40.83 51.5236L45.1072 51.2273L45.6981 59.7889L37.1422 60.3802L37.1437 60.3817Z" fill="#3455DB"/>
<path d="M67.5257 26.2031C67.5257 26.1609 67.5257 26.1174 67.5257 26.0752C67.5257 26.0404 67.5257 26.0055 67.5257 25.9706C67.5243 25.9154 67.5214 25.8617 67.5185 25.8064C67.5185 25.7861 67.517 25.7658 67.5156 25.7454C67.5112 25.6771 67.5039 25.6089 67.4967 25.5406C67.4967 25.5377 67.4967 25.5333 67.4967 25.5304C67.3936 24.6107 67.051 23.7507 66.5007 23.0693C65.8633 22.2833 64.9951 21.7951 64.0514 21.6978L62.7607 21.567C62.7607 21.567 62.7462 21.567 62.7389 21.5656C61.7327 21.4682 60.7672 21.8198 59.9963 22.4794C59.1165 23.2305 58.4907 24.3812 58.3499 25.7135L55.6784 50.9785C55.661 51.1369 55.6886 51.2967 55.7568 51.442L58.8203 57.9508C58.9495 58.2268 59.2137 58.4142 59.5172 58.4462C59.5477 58.4491 59.5782 58.4505 59.6087 58.4505C59.8468 58.4505 60.0762 58.3518 60.2402 58.1789C60.2678 58.1513 60.2925 58.1237 60.3172 58.0917L64.6728 52.3675C64.7889 52.2164 64.8514 52.0304 64.8514 51.8401V51.7965C64.8514 51.7965 64.8499 51.7849 64.8499 51.7791L66.9058 32.3341C66.9058 32.3341 66.9072 32.3239 66.9087 32.3196L67.5039 26.6825C67.5127 26.6012 67.5185 26.5212 67.5243 26.4413C67.5257 26.4108 67.5272 26.3818 67.5272 26.3527C67.5286 26.3033 67.5315 26.2539 67.533 26.2031H67.5257ZM58.0087 52.1001L62.36 52.5186L59.793 55.8921L58.0087 52.1001V52.1001ZM63.189 50.8463L57.4962 50.2986L59.388 32.4009L65.075 33.0024L63.189 50.8463ZM60.0762 25.8994C60.2402 24.3681 61.3857 23.1797 62.5777 23.3032L62.7984 23.325L63.8612 23.4325C64.3824 23.4906 64.8354 23.7783 65.1708 24.2098C65.1998 24.2475 65.2274 24.2868 65.2535 24.3245C65.2768 24.358 65.3015 24.3914 65.3232 24.4262C65.3595 24.4829 65.3915 24.5425 65.4234 24.6035C65.4539 24.6601 65.48 24.7183 65.5076 24.7778C65.525 24.8185 65.5439 24.8577 65.5599 24.8984C65.5788 24.9464 65.5947 24.9943 65.6107 25.0437C65.6238 25.0844 65.6383 25.1251 65.6499 25.1657C65.6644 25.2151 65.676 25.2645 65.6891 25.3139C65.6993 25.359 65.7094 25.404 65.7181 25.449C65.7269 25.497 65.7356 25.5449 65.7428 25.5943C65.7501 25.6466 65.7559 25.6989 65.7617 25.7512C65.7661 25.7963 65.7719 25.8399 65.7748 25.8849C65.7791 25.9488 65.7791 26.0142 65.7806 26.0781C65.7806 26.1144 65.782 26.1493 65.7806 26.1856C65.7777 26.2888 65.7719 26.3919 65.7617 26.4951L65.2579 31.2648L59.5724 30.6633L60.0733 25.9198L60.0762 25.8951V25.8994Z" fill="#3455DB"/>
</svg>
