<svg width="47" height="42" viewBox="0 0 47 42" fill="none" xmlns="http://www.w3.org/2000/svg">
<g clip-path="url(#clip0_2467_20767)">
<path d="M31.205 25.0306L29.6309 16.9829C29.6309 16.9441 29.6265 16.9052 29.6187 16.8664L28.0214 8.70218L26.424 0.537951C26.3896 0.364905 26.2887 0.211825 26.1423 0.1131C25.9958 0.014375 25.8161 -0.0211217 25.6431 0.0121565L17.4789 1.60951L9.43221 3.18356C9.39338 3.18356 9.35456 3.188 9.31462 3.19576L1.15039 4.79311C0.789878 4.86411 0.554713 5.21353 0.624597 5.57404L2.22195 13.7383L3.796 21.786C3.796 21.8249 3.80044 21.8637 3.8082 21.9025L5.40555 30.0667C5.43994 30.2398 5.54089 30.3929 5.68731 30.4916C5.79824 30.5659 5.92691 30.6047 6.05891 30.6047C6.10107 30.6047 6.14433 30.6003 6.18648 30.5925L14.2331 29.0185C14.272 29.0185 14.3119 29.014 14.3507 29.0063L22.5149 27.4089L30.6792 25.8116C31.0397 25.7406 31.2749 25.3912 31.205 25.0306ZM18.6791 11.208L20.0202 18.0633L13.1649 19.4044L11.8238 12.5491L18.6791 11.208ZM17.0817 3.04379L18.424 9.90131L11.5687 11.2424L10.2264 4.3849L17.0817 3.04379ZM21.3269 17.8082L19.9858 10.9529L26.8433 9.61068L28.1844 16.466L21.3269 17.8082ZM25.2449 1.44644L26.5871 8.30396L19.7296 9.64617L18.3874 2.78866L25.2449 1.44644ZM8.91529 4.63005L10.2575 11.4876L3.40221 12.8287L2.05888 5.97227L8.91418 4.63116L8.91529 4.63005ZM10.5126 12.7943L11.8537 19.6496L4.99845 20.9907L3.65734 14.1354L10.5126 12.7943ZM5.2436 22.3018L12.0989 20.9607L13.44 27.816L6.58471 29.1571L5.2436 22.3018ZM14.7512 27.5709L13.4101 20.7156L20.2653 19.3745L21.6065 26.2298L14.7512 27.5709ZM22.9132 25.9735L21.5721 19.1182L28.4296 17.776L29.7707 24.6313L22.9132 25.9735Z" fill="#3455DB"/>
<path d="M45.1389 17.43L44.2981 16.8987C43.6847 16.5082 42.9293 16.3862 42.1728 16.557C41.4817 16.7123 40.8372 17.0973 40.3291 17.6441C40.1572 17.8272 40.0008 18.029 39.8633 18.2476L29.4916 34.6315C29.4261 34.7347 29.3906 34.8534 29.3884 34.9754L29.2886 40.453V40.4663C29.2886 40.4729 29.2886 40.4796 29.2886 40.4873C29.2908 40.6537 29.354 40.8124 29.4649 40.9322C29.5038 40.9732 29.5481 41.0109 29.597 41.042C29.6447 41.0719 29.6957 41.0941 29.7478 41.1119C29.7556 41.1141 29.7622 41.1174 29.7689 41.1196C29.7767 41.1218 29.7844 41.123 29.7922 41.1252C29.8443 41.1385 29.8987 41.1463 29.9519 41.1463C30.0529 41.1463 30.1549 41.123 30.2481 41.0764L35.1622 38.636C35.1921 38.6216 35.221 38.6038 35.2476 38.5838C35.2565 38.5772 35.2642 38.5705 35.2731 38.5639C35.2908 38.5506 35.3086 38.5361 35.3241 38.5206C35.333 38.5117 35.3419 38.5029 35.3507 38.494C35.3652 38.4785 35.3785 38.4629 35.3918 38.4463C35.3995 38.4363 35.4073 38.4263 35.414 38.4152C35.4184 38.4086 35.424 38.403 35.4273 38.3964L44.368 24.282L45.8089 22.0135C46.8383 20.3885 46.5388 18.3352 45.1367 17.4345L45.1389 17.43ZM34.6696 37.1041L30.9536 34.8068L38.3203 23.1705L42.0141 25.5111L34.6696 37.1052V37.1041ZM33.5238 37.9604L30.6374 39.3936L30.6962 36.2111L33.5238 37.9604ZM42.7252 24.3841L39.0346 22.0457L40.998 18.9464C41.0868 18.8055 41.1866 18.6746 41.2964 18.556C41.3463 18.5016 41.3974 18.4517 41.4506 18.4029C41.4661 18.3884 41.4828 18.3751 41.4983 18.3607C41.5316 18.3319 41.566 18.303 41.6015 18.2764C41.637 18.2487 41.6725 18.2221 41.7091 18.1977C41.7268 18.1855 41.7457 18.1733 41.7634 18.161C41.8178 18.1256 41.8721 18.0923 41.9287 18.0623C41.9309 18.0623 41.932 18.0601 41.9343 18.059C42.1007 17.9703 42.2748 17.9037 42.4534 17.8638C42.7407 17.7994 43.1689 17.7761 43.5738 18.0346L44.4146 18.5659C45.2 19.0651 45.3164 20.2964 44.6753 21.3092L43.2487 23.561L42.7252 24.3863V24.3841Z" fill="#3455DB"/>
</g>
<defs>
<clipPath id="clip0_2467_20767">
<rect width="46.2859" height="42" fill="white" transform="translate(0.612305)"/>
</clipPath>
</defs>
</svg>
