<svg width="814" height="302" viewBox="0 0 814 302" fill="none" xmlns="http://www.w3.org/2000/svg">
<g clip-path="url(#clip0_1893_16516)">
<path opacity="0.5" d="M867.878 354.821C855.472 355.049 819.47 303.384 796.181 303.384C772.892 303.384 763.903 284.323 742.915 284.323C721.926 284.323 709.782 305.384 690.007 305.384C670.232 305.384 662.034 280.221 638.745 280.221C615.456 280.221 607.772 295.661 593.808 304.874C464.752 390.021 521.509 360.344 531.983 352.403L569.028 394.982L848.458 389.613L867.874 354.83L867.878 354.821Z" fill="#97C73E"/>
<path opacity="0.5" d="M559.655 307.252C558.238 307.34 563.072 305.311 548.006 305.311C531.279 305.311 493.259 238.157 469.97 238.157C446.681 238.157 438.482 263.32 418.708 263.32C398.933 263.32 382.07 223.066 361.077 223.066C340.084 223.066 309.995 290.744 286.38 290.744C262.766 290.744 248.365 317.926 235.9 317.926L259.698 347.53L539.269 352.898L559.655 307.247V307.252Z" fill="#97C73E"/>
<path d="M108.708 302.636V537.929H437.337V302.636C437.337 302.636 358.199 241.724 276.561 241.724C194.923 241.724 108.708 302.636 108.708 302.636Z" fill="#C1D459"/>
<path d="M639.298 302.267H638.41H559.723H558.84V301.379V267.659V266.771H559.723H638.41H639.298V267.659V301.379V302.267Z" fill="#8A6968"/>
<path fill-rule="evenodd" clip-rule="evenodd" d="M636.949 272.605C637.944 275.94 636.784 280.192 636.949 283.881C636.066 280.585 637.303 276.493 636.949 272.605Z" fill="#4C4748"/>
<path fill-rule="evenodd" clip-rule="evenodd" d="M566.32 274.833C567.087 276.449 566.737 279.833 566.32 281.502C566.097 279.721 566.47 277.08 566.32 274.833Z" fill="#4C4748"/>
<path fill-rule="evenodd" clip-rule="evenodd" d="M629.435 274.833C629.654 274.809 629.77 274.867 629.809 274.993C629.77 275.857 629.94 276.901 629.62 277.532C629.508 277.862 629.853 278.575 629.43 278.643V274.833H629.435Z" fill="#4C4748"/>
<path fill-rule="evenodd" clip-rule="evenodd" d="M626.241 275.624C626.634 277.449 625.955 281.095 625.868 283.565C625.615 281.148 625.824 278.241 626.241 275.624Z" fill="#4C4748"/>
<path fill-rule="evenodd" clip-rule="evenodd" d="M632.813 276.1C633.551 282.934 631.644 289.336 631.877 295.792C630.678 289.215 633.022 282.895 632.813 276.1Z" fill="#4C4748"/>
<path fill-rule="evenodd" clip-rule="evenodd" d="M574.018 276.42C574.775 276.522 574.528 277.469 574.581 278.168C574.183 277.765 574.266 276.949 574.018 276.42Z" fill="#4C4748"/>
<path fill-rule="evenodd" clip-rule="evenodd" d="M570.824 277.056C571.674 277.609 570.97 279.473 571.198 280.551C570.62 281.172 569.363 281.221 568.946 281.978V288.171C568.383 286.38 568.193 283.089 568.756 281.342C569.218 280.886 570.227 280.89 570.635 280.391C571.043 279.57 570.717 278.133 570.824 277.056Z" fill="#4C4748"/>
<path fill-rule="evenodd" clip-rule="evenodd" d="M578.338 277.056C579.207 278.862 578.469 282.026 578.712 284.361C577.853 282.546 578.571 279.395 578.338 277.056Z" fill="#4C4748"/>
<path fill-rule="evenodd" clip-rule="evenodd" d="M617.038 277.372C618.16 281.031 616.286 286.507 617.412 289.759C615.665 286.371 617.446 281.614 617.038 277.372Z" fill="#4C4748"/>
<path fill-rule="evenodd" clip-rule="evenodd" d="M583.037 277.532C583.255 277.507 583.372 277.566 583.41 277.692C583.401 281.313 582.794 283.953 583.784 286.744C584.629 289.123 586.357 290.501 586.415 293.098C586.449 294.569 586.095 296.006 585.852 297.705C585.522 295.414 586.095 293.889 585.852 291.987C585.58 289.861 583.804 288.686 583.221 287.065C582.197 284.201 583.139 281.017 583.032 277.537L583.037 277.532Z" fill="#4C4748"/>
<path fill-rule="evenodd" clip-rule="evenodd" d="M586.794 278.008C587.483 280.265 586.095 283.891 586.794 286.745C585.794 284.221 586.551 280.823 586.794 278.008Z" fill="#4C4748"/>
<path fill-rule="evenodd" clip-rule="evenodd" d="M610.087 278.168C610.306 278.143 610.422 278.201 610.461 278.328C609.83 280.468 611.83 281.454 612.529 283.089C613.922 286.375 612.811 290.283 612.34 293.889C612.063 289.827 613.48 286.405 611.966 283.089C611.34 281.721 609.325 280.279 610.087 278.168Z" fill="#4C4748"/>
<path fill-rule="evenodd" clip-rule="evenodd" d="M591.303 278.323C592.148 279.92 591.133 282.192 591.492 284.677C590.623 282.929 591.439 280.439 591.303 278.323Z" fill="#4C4748"/>
<path fill-rule="evenodd" clip-rule="evenodd" d="M606.515 278.323C607.102 278.347 606.874 279.294 606.326 279.274C606.19 278.789 606.52 278.697 606.515 278.323Z" fill="#4C4748"/>
<path fill-rule="evenodd" clip-rule="evenodd" d="M597.312 278.483C598.627 282.259 601.744 287.288 599.001 291.666C600.816 286.57 598.025 282.832 597.312 278.483Z" fill="#4C4748"/>
<path fill-rule="evenodd" clip-rule="evenodd" d="M601.821 278.483H602.384C601.894 279.711 602.559 281.915 601.821 282.929C601.239 281.59 602.045 280.051 601.821 278.483Z" fill="#4C4748"/>
<path fill-rule="evenodd" clip-rule="evenodd" d="M622.674 278.483C620.402 282.187 625.149 287.109 624.178 293.409C623.834 295.632 622.839 297.195 622.674 299.603C622.484 295.894 624.183 293.045 623.611 288.487C623.125 284.599 619.868 281.366 622.674 278.483Z" fill="#4C4748"/>
<path fill-rule="evenodd" clip-rule="evenodd" d="M595.06 278.643C595.239 280.808 594.293 283.395 593.371 285.152C593.487 288.07 594.041 290.618 594.307 293.409C593.72 290.846 592.502 288.021 592.992 285.152C593.366 282.983 595.104 280.779 595.06 278.643Z" fill="#4C4748"/>
<path fill-rule="evenodd" clip-rule="evenodd" d="M604.263 282.454C604.976 286.769 604.831 292.37 605.015 297.224C605.088 299.127 605.078 301.165 604.263 302.622C604.719 296.433 604.374 288.545 604.263 282.454Z" fill="#4C4748"/>
<path fill-rule="evenodd" clip-rule="evenodd" d="M629.057 282.454C629.358 283.182 629.537 285.376 629.246 286.584C628.984 285.424 628.644 283.677 629.057 282.454Z" fill="#4C4748"/>
<path fill-rule="evenodd" clip-rule="evenodd" d="M571.577 288.963C568.431 288.618 569.145 280.808 572.14 283.245C573.523 284.371 572.96 287.827 571.577 288.963ZM571.387 288.647C572.382 287.502 573.033 284.055 571.198 283.25C569.096 283.74 570.028 288.118 571.387 288.647Z" fill="#4C4748"/>
<path fill-rule="evenodd" clip-rule="evenodd" d="M571.203 283.25C573.033 284.06 572.382 287.506 571.392 288.647C570.033 288.113 569.101 283.735 571.203 283.25Z" fill="#8A6968"/>
<path fill-rule="evenodd" clip-rule="evenodd" d="M597.123 291.031C594.264 290.735 593.929 284.405 596.37 284.361C598.88 284.318 598.889 289.885 597.123 291.031ZM596.186 284.677C594.458 285.851 595.142 290.074 596.938 290.71C598.191 289.409 598.496 285.182 596.186 284.677Z" fill="#4C4748"/>
<path fill-rule="evenodd" clip-rule="evenodd" d="M596.938 290.71C595.147 290.074 594.458 285.851 596.186 284.677C598.496 285.182 598.191 289.414 596.938 290.71Z" fill="#8A6968"/>
<path fill-rule="evenodd" clip-rule="evenodd" d="M609.524 285.312C610.393 288.103 609.466 292.817 609.714 296.588C608.762 293.307 609.903 289.157 609.524 285.312Z" fill="#4C4748"/>
<path fill-rule="evenodd" clip-rule="evenodd" d="M578.338 287.696C578.862 289.866 579.77 292.375 578.901 294.686C578.654 295.341 577.775 295.826 577.586 296.593C577.217 298.098 578.265 299.651 577.023 300.879C577.629 299.248 576.78 297.841 577.212 296.273C577.392 295.608 578.28 295.186 578.527 294.525C579.323 292.39 578.396 290.322 578.338 287.696Z" fill="#4C4748"/>
<path fill-rule="evenodd" clip-rule="evenodd" d="M589.798 289.123C590.332 291.064 589.667 292.535 590.172 294.205C590.468 295.171 591.468 295.875 591.677 296.743C592.118 298.622 591.521 300.486 591.487 302.622C590.774 300.631 591.682 298.831 591.114 296.904C590.803 295.865 589.818 295.127 589.609 294.205C589.225 292.487 589.832 290.982 589.798 289.123Z" fill="#4C4748"/>
<path fill-rule="evenodd" clip-rule="evenodd" d="M629.057 289.123C629.673 293.312 629.294 298.345 629.809 302.622C628.561 299.049 629.202 293.103 629.057 289.123Z" fill="#4C4748"/>
<path fill-rule="evenodd" clip-rule="evenodd" d="M635.823 290.234C637.24 293.676 635.653 298.753 636.386 302.622C635.376 302.19 635.828 300.913 635.823 300.083C635.804 297.107 636.294 292.938 635.823 290.234Z" fill="#4C4748"/>
<path fill-rule="evenodd" clip-rule="evenodd" d="M561.995 291.03C562.582 294.918 561.495 298.763 561.432 302.621C560.869 298.758 561.961 294.918 561.995 291.03Z" fill="#4C4748"/>
<path fill-rule="evenodd" clip-rule="evenodd" d="M621.169 291.506C621.387 291.482 621.504 291.54 621.543 291.666C621.237 295.331 621.028 299.685 620.227 302.626C620.082 298.53 621.247 295.549 621.164 291.511L621.169 291.506Z" fill="#4C4748"/>
<path fill-rule="evenodd" clip-rule="evenodd" d="M616.849 292.297C617.485 294.312 617.941 296.928 617.786 299.127C617.572 296.768 617.038 294.676 616.849 292.297Z" fill="#4C4748"/>
<path fill-rule="evenodd" clip-rule="evenodd" d="M583.6 292.778C584.789 295.69 583.619 299.462 583.41 302.626C582.663 299.855 584.323 296.142 583.6 292.778Z" fill="#4C4748"/>
<path fill-rule="evenodd" clip-rule="evenodd" d="M598.627 293.409C598.71 295.967 598.234 299.433 598.438 302.622C597.632 300.078 598.03 295.826 598.627 293.409Z" fill="#4C4748"/>
<path fill-rule="evenodd" clip-rule="evenodd" d="M595.623 294.205C596.657 296.268 597.142 300.569 595.997 302.622C596.419 299.889 596.065 296.705 595.623 294.205Z" fill="#4C4748"/>
<path fill-rule="evenodd" clip-rule="evenodd" d="M574.207 295.156C574.63 297.627 574.494 301.01 573.266 302.622C573.858 300.37 574.033 297.763 574.207 295.156Z" fill="#4C4748"/>
<path fill-rule="evenodd" clip-rule="evenodd" d="M615.344 295.792C616.47 297.331 615.966 300.243 616.097 302.622C614.757 301.267 616.048 297.69 615.344 295.792Z" fill="#4C4748"/>
<path fill-rule="evenodd" clip-rule="evenodd" d="M602.011 296.904C602.792 298.321 602.423 301.476 601.637 302.621C601.812 300.758 602.137 299.02 602.011 296.904Z" fill="#4C4748"/>
<path fill-rule="evenodd" clip-rule="evenodd" d="M588.109 297.224C588.696 298.438 589.182 301.384 588.483 302.622C588.522 300.685 588.09 299.141 588.109 297.224Z" fill="#4C4748"/>
<path fill-rule="evenodd" clip-rule="evenodd" d="M580.217 298.015C581.255 299.132 580.42 300.918 580.59 302.622C579.649 301.568 580.886 299.437 580.217 298.015Z" fill="#4C4748"/>
<path fill-rule="evenodd" clip-rule="evenodd" d="M611.587 299.127C612.068 300.068 611.32 301.335 611.587 302.622C610.641 301.889 611.578 300.102 611.587 299.127Z" fill="#4C4748"/>
<path fill-rule="evenodd" clip-rule="evenodd" d="M562.747 276.896C562.257 278.474 560.942 280.498 561.811 283.405C562.204 284.73 563.466 285.764 564.063 287.06C565.456 290.065 565.417 295.351 564.815 298.651C564.64 294.555 564.966 290.201 563.5 287.06C562.854 285.672 561.524 284.521 561.247 283.25C560.718 280.813 561.476 278.551 562.752 276.896H562.747Z" fill="#4C4748"/>
<path fill-rule="evenodd" clip-rule="evenodd" d="M574.581 290.235C570.97 290.73 571.368 294.613 570.635 297.54C570.635 294.681 570.499 290.332 574.203 290.074C575.591 287.72 574.906 283.648 574.392 281.498C575.61 283.716 576.052 287.958 574.581 290.23V290.235Z" fill="#4C4748"/>
<path fill-rule="evenodd" clip-rule="evenodd" d="M569.324 293.569C569.761 292.865 569.14 294.292 569.135 294.681C567.65 296.389 568.844 300.365 568.009 302.622C568.087 299.302 567.524 295.438 569.324 293.569Z" fill="#4C4748"/>
<path d="M598.914 281.862C620.815 281.862 638.57 275.885 638.57 268.513C638.57 261.141 620.815 255.165 598.914 255.165C577.012 255.165 559.257 261.141 559.257 268.513C559.257 275.885 577.012 281.862 598.914 281.862Z" fill="#F7E8C6"/>
<path fill-rule="evenodd" clip-rule="evenodd" d="M558.704 267.931C566.281 271.489 575.683 277.731 585.702 279.105C599.54 281.007 613.699 279.464 625.076 273.993C628.115 272.532 630.561 269.29 633.158 267.606C627.994 273.78 620.98 277.891 612.524 279.1C603.054 280.454 592.541 281.478 583.464 279.74C581.309 279.328 579.081 277.896 576.93 277.187C570.392 275.032 563.898 272.076 558.704 267.926V267.931Z" fill="#C29139"/>
<path fill-rule="evenodd" clip-rule="evenodd" d="M566.441 267.931C569.766 268.969 573.411 272.921 577.62 273.998C578.401 274.197 579.197 273.862 580.027 273.998C581.92 274.314 583.784 275.731 585.701 276.231C591.929 277.867 599.035 277.799 605.302 276.872C608.767 276.357 612.029 275.25 614.932 273.357C617.902 271.421 620.669 269.29 623.358 267.61C614.937 277.905 598.623 280.454 585.701 276.872C579.294 275.095 571.217 272.867 566.441 267.931Z" fill="#C29139"/>
<path fill-rule="evenodd" clip-rule="evenodd" d="M571.086 267.931C576.702 269.819 583.983 272.993 591.546 273.998C597.506 274.789 604.209 275.983 609.602 273.357C613.281 271.566 616.703 268.751 620.091 267.61C616.136 270.882 609.636 274.993 604.442 275.595C599.278 276.192 592.638 275.037 587.25 274.318C584.396 273.94 581.663 272.251 578.998 271.445C576.096 270.571 573.339 270.066 571.086 267.931Z" fill="#C29139"/>
<path fill-rule="evenodd" clip-rule="evenodd" d="M578.134 267.931C579.503 267.441 580.401 269.46 581.746 270.164C586.527 272.673 593.254 273.003 599.113 272.397C604.171 271.877 608.627 268.547 612.524 267.606C603.981 274.673 586.789 275.396 578.134 267.926V267.931Z" fill="#C29139"/>
<path fill-rule="evenodd" clip-rule="evenodd" d="M583.639 267.931C584.464 267.251 585.896 268.198 586.216 269.528C585.25 269.193 584.663 268.154 583.639 267.931Z" fill="#C29139"/>
<path fill-rule="evenodd" clip-rule="evenodd" d="M586.905 267.931C588.143 268.023 589.41 270.634 590.686 271.125C596.307 273.28 602.506 268.241 607.195 267.61C602.176 271.125 591.274 275.668 586.905 267.931Z" fill="#C29139"/>
<path fill-rule="evenodd" clip-rule="evenodd" d="M589.827 267.931C593.565 268.911 598.302 269.052 602.379 267.61C598.991 270.261 593.434 270.445 589.827 267.931Z" fill="#C29139"/>
<path fill-rule="evenodd" clip-rule="evenodd" d="M614.073 276.236C618.956 274.338 623.547 271.906 627.484 268.251C627.513 267.557 626.872 268.105 626.625 267.931C626.989 267.222 629.532 267.8 630.751 267.61C631.911 267.387 631.911 268.154 630.751 267.931H628.518C624.183 271.591 620.057 275.639 614.073 276.231V276.236Z" fill="#C29139"/>
<path fill-rule="evenodd" clip-rule="evenodd" d="M638.662 267.615C636.444 270.625 633.279 271.887 630.581 274.003C630.794 272.503 632.129 272.382 632.988 271.77C634.702 270.547 636.629 269.096 637.973 267.62H638.662V267.615Z" fill="#C29139"/>
<path d="M619.8 30.0115L543.54 23.3374L530.503 22.1967L502.923 19.7843C496.919 19.2601 491.686 22.9831 491.235 28.0991L489.303 50.194C488.856 55.3101 493.361 59.8873 499.37 60.4115L526.95 62.8239L539.987 63.9646L616.247 70.6387C622.251 71.1629 627.484 67.44 627.935 62.324L629.867 40.229C630.314 35.113 625.809 30.5357 619.8 30.0115Z" fill="#BDDFF3"/>
<path d="M601.696 27.5123L598.142 68.1396L604.525 68.6981L608.079 28.0707L601.696 27.5123Z" fill="#4C4748"/>
<path d="M514.8 19.9129L511.245 60.5403L517.628 61.0987L521.183 20.4714L514.8 19.9129Z" fill="#4C4748"/>
<path d="M613.179 85.4919L614.369 71.8816C614.893 65.8773 610.452 60.5817 604.442 60.0526L599.909 59.6546L580.649 57.9703L576.115 57.5722C575.717 57.5383 575.324 57.5286 574.935 57.5334C574.552 57.4606 574.164 57.3975 573.766 57.3635L536.609 54.1114L517.349 52.4271L512.815 52.0291C506.811 51.5049 501.515 55.9462 500.986 61.9553L499.797 75.5657C499.787 75.6239 499.768 75.6773 499.763 75.7404C499.758 75.8035 499.763 75.8569 499.763 75.9151L499.748 76.0559C499.748 76.0559 499.758 76.0656 499.763 76.0705C499.85 76.8083 500.433 77.4102 501.195 77.4975C501.195 77.4975 501.195 77.4975 501.2 77.5024L504.161 77.7596L496.152 169.299C495.628 175.304 500.059 180.74 506.063 181.269L562.495 186.065C562.893 186.099 563.286 186.109 563.674 186.104C564.058 186.176 564.446 186.24 564.844 186.274L588.624 188.497C594.628 189.021 599.938 184.439 600.462 178.434L608.471 86.8947L611.432 87.1519C611.432 87.1519 611.432 87.1519 611.437 87.1519C612.204 87.2005 612.883 86.7102 613.097 85.9967C613.102 85.9967 613.107 85.987 613.116 85.987L613.131 85.8462C613.141 85.788 613.16 85.7346 613.165 85.6715C613.17 85.6084 613.165 85.555 613.165 85.4968L613.179 85.4919Z" fill="#007F76"/>
<path d="M534.536 235.011L516.854 234.487L513.781 260.829H531.527L534.536 235.011Z" fill="#FFCC99"/>
<path d="M534.522 235.244L542.244 168.998L524.557 168.474L516.834 234.72L534.522 235.244Z" fill="#51AE4E"/>
<path d="M512.81 238.487H537.803L538.439 231.23H513.441L512.81 238.487Z" fill="#51AE4E"/>
<path d="M509.068 301.379L511.621 279.478L529.304 280.002L526.814 301.379H509.068Z" fill="#8A6968"/>
<path d="M517.543 301.379C517.887 296.258 514.019 292.108 508.898 292.108C503.777 292.108 499.346 296.258 498.996 301.379" fill="#8A6968"/>
<path d="M572.198 168.474H521.945V191.453H572.198V168.474Z" fill="#51AE4E"/>
<path d="M529.323 279.769L531.527 260.829H513.781L511.636 279.245L529.323 279.769Z" fill="white"/>
<path d="M510.145 286.4H516.281C516.698 286.4 517.057 286.06 517.087 285.647C517.116 285.235 516.8 284.895 516.383 284.895H510.247C509.83 284.895 509.471 285.235 509.442 285.647C509.413 286.06 509.728 286.4 510.145 286.4Z" fill="#4C4748"/>
<path d="M509.597 289.768H515.732C516.15 289.768 516.509 289.428 516.538 289.016C516.567 288.598 516.252 288.263 515.834 288.263H509.699C509.281 288.263 508.922 288.603 508.893 289.016C508.864 289.433 509.18 289.768 509.597 289.768Z" fill="#4C4748"/>
<path d="M510.689 283.026H516.825C517.242 283.026 517.601 282.686 517.63 282.274C517.659 281.856 517.344 281.521 516.926 281.521H510.791C510.374 281.521 510.015 281.861 509.985 282.274C509.956 282.686 510.272 283.026 510.689 283.026Z" fill="#4C4748"/>
<path d="M517.329 164.659L516.208 177.468C515.587 184.589 520.902 190.923 528.022 191.55L566.349 194.904C573.47 195.525 579.804 190.21 580.43 183.089L581.551 170.28L517.334 164.659H517.329Z" fill="#51AE4E"/>
<path d="M602.617 199.277C599.506 192.559 590.599 188.327 569.611 186.487L535.298 182.847" stroke="#51AE4E" stroke-width="17.6779" stroke-miterlimit="10"/>
<path opacity="0.3" d="M578.188 180.507C578.188 180.507 567.892 191.54 565.189 193.506L573.508 175.308" stroke="#8A6968" stroke-width="1.56781" stroke-linecap="round" stroke-linejoin="round"/>
<path d="M516.66 172.284L524.033 88.0061C524.654 80.8854 530.993 75.5704 538.114 76.1917L576.44 79.5458C583.561 80.1671 588.876 86.5063 588.255 93.6269L580.882 177.905L516.664 172.284H516.66Z" fill="#E27B42"/>
<path d="M498.598 111.81C494.734 118.872 492.031 126.726 491.526 134.482C490.007 157.835 521.707 123.556 521.707 123.556" stroke="#F9BE87" stroke-width="12.9988" stroke-miterlimit="10" stroke-linecap="round"/>
<path d="M527.605 85.9724C518.839 86.5986 506.369 97.6072 498.598 111.81L527.605 85.9724Z" fill="#51AE4E"/>
<path d="M527.605 85.9724C518.839 86.5986 506.369 97.6072 498.598 111.81" stroke="#E27B42" stroke-width="12.9988" stroke-miterlimit="10"/>
<path d="M606.714 115.664C613.737 131.405 616.66 161.795 602.103 185.705" stroke="#F9BE87" stroke-width="12.9988" stroke-miterlimit="10" stroke-linecap="round"/>
<path d="M583.619 89.8311C588.056 91.03 599.695 99.9223 606.719 115.664" stroke="#E27B42" stroke-width="12.9988" stroke-miterlimit="10"/>
<path d="M586.808 126.376L588.555 85.5451C588.687 84.0453 587.823 82.7396 586.624 82.6376L579.532 80.1913C578.333 80.0845 577.256 81.2203 577.125 82.7202L575.222 125.367C575.091 126.866 573.8 156.325 582.008 161.154C582.008 161.154 584.459 162.052 584.658 159.79C584.857 157.524 586.682 127.886 586.813 126.381L586.808 126.376Z" fill="#4C4748"/>
<path d="M588.449 102.097C588.429 102.515 588.017 102.835 587.527 102.811L576.411 102.257C575.921 102.233 575.542 101.874 575.562 101.456L575.751 97.6364C575.77 97.219 576.183 96.8987 576.673 96.9229L587.789 97.4763C588.279 97.5005 588.657 97.8597 588.638 98.2772L588.449 102.097Z" fill="#9EA99A"/>
<path d="M518.213 120.377L523.586 79.8615C523.717 78.3616 524.795 77.2258 525.994 77.3326L533.405 76.1531C534.604 76.2599 535.468 77.5607 535.337 79.0606L529.809 121.387C529.678 122.886 525.833 152.122 516.912 155.451C516.912 155.451 514.339 155.912 514.538 153.646C514.737 151.379 518.087 121.872 518.218 120.372L518.213 120.377Z" fill="#4C4748"/>
<path d="M520.814 96.1802C520.761 96.5976 521.11 96.9811 521.601 97.0442L532.643 98.4275C533.129 98.4906 533.566 98.1994 533.619 97.7868L534.095 93.9911C534.148 93.5736 533.799 93.1902 533.308 93.1271L522.266 91.7437C521.78 91.6806 521.343 91.9718 521.29 92.3844L520.814 96.1802Z" fill="#9EA99A"/>
<path d="M546.49 53.8647L543.967 82.6936L569.702 84.9451L572.224 56.1162L546.49 53.8647Z" fill="#FFA36E"/>
<path d="M516.208 115.62C516.596 114.528 517.494 111.984 518.999 111.805C520.499 111.625 522.47 112.606 522.669 116.367C522.669 116.367 533.372 116.465 534.546 117.037C535.721 117.605 536.716 120.061 535.721 121.469C534.726 122.877 532.415 124.561 532.231 125.682C532.046 126.803 530.352 134.759 529.076 135.924C527.804 137.084 516.941 135.793 514.233 135.434C511.524 135.074 515.815 116.712 516.203 115.62H516.208Z" fill="#F9BE87"/>
<path d="M554.297 126.425C561.792 126.425 567.868 120.349 567.868 112.853C567.868 105.358 561.792 99.2817 554.297 99.2817C546.801 99.2817 540.725 105.358 540.725 112.853C540.725 120.349 546.801 126.425 554.297 126.425Z" fill="#DBCA5A"/>
<path d="M546.336 118.663L561.097 119.955L555.166 102.937L546.336 118.663Z" fill="#F7E8C6"/>
<path opacity="0.5" d="M552.86 119.236L563.655 120.178L559.286 108.062L552.86 119.236Z" fill="#F7E8C6"/>
<path opacity="0.5" d="M544.39 118.494L552.86 119.236L549.69 106.791L544.39 118.494Z" fill="#F7E8C6"/>
<path d="M600.812 227.211C599.7 233.24 598.724 239.934 598.724 247.311" stroke="white" stroke-width="17.6779" stroke-miterlimit="10"/>
<path d="M602.617 199.277C605.753 206.043 603.01 215.324 600.812 227.216" stroke="#FFCC99" stroke-width="17.6779" stroke-miterlimit="10"/>
<path d="M608.136 268.105L607.495 246.209L589.764 246.273L589.352 268.105H608.136Z" fill="#8A6968"/>
<path d="M593.618 268.105C593.618 262.985 597.768 258.834 602.889 258.834C608.01 258.834 612.16 262.985 612.16 268.105" fill="#8A6968"/>
<path d="M602.122 253.359H595.987C595.57 253.359 595.235 253.019 595.235 252.607C595.235 252.194 595.574 251.854 595.987 251.854H602.122C602.54 251.854 602.875 252.194 602.875 252.607C602.875 253.019 602.535 253.359 602.122 253.359Z" fill="#4C4748"/>
<path d="M602.443 256.733H596.307C595.89 256.733 595.555 256.393 595.555 255.981C595.555 255.568 595.895 255.228 596.307 255.228H602.443C602.86 255.228 603.195 255.568 603.195 255.981C603.195 256.393 602.855 256.733 602.443 256.733Z" fill="#4C4748"/>
<path d="M597.181 183.381C597.181 183.381 593.123 193.681 589.415 191.375C585.711 189.069 590.555 181.677 590.555 181.677C590.555 181.677 584.517 190.666 581.294 188.453C578.071 186.239 583.575 179.954 583.575 179.954C583.575 179.954 575.615 185.924 574.207 182.72C572.8 179.522 581.25 173.178 586.395 171.639C591.541 170.1 605.136 180.201 610.68 183.88C607.558 189.079 605.355 188.356 604.962 188.04C597.161 181.803 597.501 183.487 597.181 183.376" fill="#F9BE87"/>
<path d="M530.017 43.3307C532.84 43.3307 535.129 41.1314 535.129 38.4185C535.129 35.7056 532.84 33.5063 530.017 33.5063C527.195 33.5063 524.906 35.7056 524.906 38.4185C524.906 41.1314 527.195 43.3307 530.017 43.3307Z" fill="#FFA36E"/>
<path d="M588.769 43.3307C591.592 43.3307 593.88 41.1314 593.88 38.4185C593.88 35.7056 591.592 33.5063 588.769 33.5063C585.946 33.5063 583.658 35.7056 583.658 38.4185C583.658 41.1314 585.946 43.3307 588.769 43.3307Z" fill="#FFA36E"/>
<path d="M545.574 16.3674C544.773 17.7556 538.827 23.3765 536.027 32.5212C533.231 41.666 532.881 49.8594 537.594 51.0486C542.303 52.2378 545.404 48.1411 547.555 46.9373C549.705 45.7335 556.146 42.0252 562.883 43.3648C569.625 44.7045 576.974 50.5826 579.6 50.3787C582.231 50.1749 585.6 48.4469 583.474 31.4242C581.348 14.3967 577.591 11.9504 577.591 11.9504L579.396 9.06229C574.848 6.0917 568.019 4.4802 557.889 6.04801C557.889 6.04801 551.792 6.82464 545.472 11.0912C545.754 12.6687 546.128 15.4063 545.569 16.3723L545.574 16.3674Z" fill="#F9BE87"/>
<path d="M586.813 18.9543C585.677 15.4255 583.444 11.7025 579.406 9.06201L577.6 11.9501C577.6 11.9501 581.357 14.3965 583.483 31.424C585.609 48.4466 582.241 50.1746 579.61 50.3785C576.979 50.5823 569.63 44.7042 562.893 43.3646C556.156 42.0249 549.715 45.7333 547.564 46.937C545.414 48.1408 542.312 52.2375 537.604 51.0483C532.891 49.8591 533.24 41.6657 536.036 32.5209C538.837 23.3762 544.778 17.7554 545.584 16.3671C546.142 15.4012 545.768 12.6636 545.487 11.0861C541.905 13.5082 538.25 17.0467 535.595 22.2112C528.26 36.4769 528.828 62.3142 535.313 69.4397C541.798 76.5653 552.763 78.866 561.796 77.837C570.829 76.808 583.634 70.3571 586.264 58.1593C588.9 45.9663 588.954 25.575 586.823 18.9543H586.813Z" fill="#9EA99A"/>
<path d="M585.837 16.5713C585.837 16.5713 575.654 17.3479 564.771 18.2071C553.889 19.0662 537.628 20.0612 534.522 12.0669C534.522 12.0669 531.508 4.30547 537.153 2.65029C537.153 2.65029 538.468 2.14063 542.74 2.30081C547.011 2.46098 548.744 1.26207 554.792 0.28158C563.247 -1.09207 582.008 2.26197 585.837 16.5713Z" fill="#9EA99A"/>
<path d="M559.141 31.2639C559.141 31.2639 558.694 31.3076 558.675 31.8561C558.651 32.39 557.505 39.6903 557.092 41.2193C556.578 43.1414 554.651 46.6217 556.821 47.2575C558.99 47.8885 560.024 47.5245 560.602 46.9178C561.024 46.4712 561.233 42.6366 561.063 39.3893C560.893 36.1372 559.651 30.929 559.136 31.2688L559.141 31.2639Z" fill="#FFA36E"/>
<path d="M571.402 32.2348C571.46 33.5162 570.319 34.4821 569.091 34.2443C568.227 34.0793 567.557 33.3123 567.519 32.4289C567.465 31.1572 568.596 30.1961 569.819 30.4243C570.688 30.5844 571.363 31.3514 571.402 32.2348Z" fill="#4C4748"/>
<path d="M550.913 31.6327C550.972 32.9142 549.831 33.8801 548.603 33.6422C547.739 33.4772 547.069 32.7103 547.03 31.8269C546.977 30.5552 548.108 29.5941 549.331 29.8222C550.2 29.9824 550.875 30.7493 550.913 31.6327Z" fill="#4C4748"/>
<path opacity="0.5" d="M570.451 39.0448C570.451 39.0448 567.189 39.4186 566.32 37.2246" stroke="#E28B59" stroke-width="1.56781" stroke-linecap="round" stroke-linejoin="round"/>
<path opacity="0.5" d="M547.03 38.3895C547.03 38.3895 550.268 38.9428 551.253 36.8022" stroke="#E28B59" stroke-width="1.56781" stroke-linecap="round" stroke-linejoin="round"/>
<path opacity="0.3" d="M550.627 53.3394C552.515 55.7954 555.442 57.4263 558.777 57.5477C562.116 57.6739 565.155 56.2663 567.218 53.9607" stroke="#8A6968" stroke-width="1.56781" stroke-linecap="round" stroke-linejoin="round"/>
<path d="M564.796 25.9976C564.796 25.9976 561.481 26.5266 561.481 28.8419H557.224C557.224 26.5266 553.908 25.9976 553.908 25.9976H531.915V28.3711H535.701V37.1227C535.701 39.2633 537.779 42.5785 541.157 42.7921H541.371C542.88 42.7727 551.787 42.7921 551.787 42.7921C556.321 42.7921 557.224 37.3557 557.224 37.3557V31.4291H561.481V37.3557C561.481 37.3557 562.383 42.7921 566.936 42.7921C566.936 42.7921 575.882 42.7727 577.353 42.7921H577.547C580.94 42.5785 583.022 39.2584 583.022 37.1227V28.3711H586.808V25.9976H564.796ZM554.87 36.8849C554.87 36.8849 554.651 40.4379 551.316 40.4379H541.604C541.604 40.4379 538.051 39.4574 538.051 36.8849V28.6041H553.904C553.904 28.6041 554.69 28.6818 554.826 29.3322C554.865 29.3904 554.865 29.4681 554.865 29.5458V36.8849H554.87ZM580.649 36.8849C580.649 39.4526 577.12 40.4379 577.12 40.4379H567.407C564.073 40.4379 563.854 36.8849 563.854 36.8849C563.854 36.8849 563.854 30.3903 563.854 29.5458C563.854 29.4681 563.854 29.3904 563.893 29.3322C564.009 28.6866 564.796 28.6041 564.796 28.6041H580.649V36.8849Z" fill="#8A6968"/>
<path d="M591.448 206.844L615.271 199.277L613.679 192.166L589.856 199.733L591.448 206.844Z" fill="#51AE4E"/>
<path d="M389.031 282.881C406.888 292.336 411.582 292.938 401.19 275.61C395.501 266.125 392.103 265.892 398.355 268.965C401.797 270.654 403.515 271.503 403.928 270.969C405.088 269.479 399.074 258.723 392.681 251.913C403.243 257.49 399.879 251.432 394.302 241.632C389.672 233.497 388.604 232.973 387.715 232.983C385.347 233.007 375.396 251.529 376.673 253.418C377.11 254.063 378.454 254.51 383.26 251.787C381.57 253.942 379.328 256.971 376.877 260.815C369.183 272.872 370.484 272.848 375.76 270.969C383.357 268.27 381.634 266.538 375.11 278.643C366.81 294.05 370.892 293.88 389.036 282.881H389.031Z" fill="#51AE4E"/>
<path d="M392.681 303.602C392.463 298.433 391.88 285.371 390.909 280.362C388.128 266.125 391.71 265.664 388.914 252.481C387.609 246.01 389.308 239.982 388.332 235.672C387.813 235.778 388.526 235.196 387.978 239.909C387.366 244.879 386.512 248.044 386.803 251.757C388.405 266.824 384.658 264.771 385.895 280.502C386.356 285.817 385.575 298.19 385.235 303.495C386.123 304.456 390.662 305.383 392.676 303.597L392.681 303.602Z" fill="#8A6968"/>
<path d="M199.874 269.067C229.09 284.536 236.759 285.517 219.761 257.175C210.456 241.662 204.898 241.278 215.12 246.307C220.746 249.073 223.561 250.457 224.236 249.588C226.134 247.151 216.295 229.556 205.84 218.421C223.115 227.541 217.615 217.635 208.49 201.607C200.913 188.303 199.17 187.443 197.719 187.458C193.841 187.502 177.566 217.79 179.653 220.882C180.371 221.94 182.57 222.668 190.424 218.217C187.667 221.741 183.992 226.702 179.983 232.983C167.402 252.704 169.528 252.66 178.158 249.593C190.584 245.176 187.764 242.346 177.095 262.145C163.518 287.342 170.193 287.07 199.869 269.072L199.874 269.067Z" fill="#51AE4E"/>
<path d="M205.849 302.956C205.49 294.501 204.539 273.134 202.956 264.946C198.408 241.661 204.262 240.904 199.694 219.338C197.559 208.752 200.34 198.894 198.743 191.846C197.899 192.02 199.059 191.064 198.166 198.782C197.166 206.912 195.768 212.086 196.243 218.164C198.864 242.802 192.734 239.453 194.758 265.183C195.51 273.877 194.234 294.118 193.676 302.791C195.127 304.369 202.553 305.883 205.844 302.961L205.849 302.956Z" fill="#8A6968"/>
<path d="M268.625 253.223C226.396 275.585 215.3 277.003 239.875 236.031C253.325 213.606 261.359 213.053 246.583 220.319C238.448 224.318 234.385 226.318 233.405 225.061C230.662 221.537 244.889 196.108 259.999 180.002C235.026 193.19 242.972 178.862 256.165 155.694C267.12 136.458 269.639 135.215 271.736 135.24C277.342 135.303 300.869 179.09 297.85 183.555C296.816 185.089 293.637 186.138 282.279 179.701C286.269 184.793 291.579 191.962 297.375 201.044C315.567 229.551 312.49 229.493 300.01 225.056C282.046 218.669 286.123 214.577 301.549 243.2C321.178 279.624 311.524 279.231 268.625 253.214V253.223Z" fill="#97C73E"/>
<path d="M259.99 302.219C260.509 289.992 261.883 259.106 264.174 247.268C270.746 213.606 262.281 212.509 268.887 181.337C271.969 166.038 267.955 151.782 270.261 141.598C271.484 141.851 269.809 140.467 271.091 151.621C272.532 163.373 274.561 170.857 273.872 179.638C270.086 215.261 278.949 210.412 276.017 247.612C274.93 260.184 276.779 289.438 277.58 301.976C275.483 304.253 264.747 306.442 259.985 302.219H259.99Z" fill="#8A6968"/>
<path d="M338.126 66.7898C335.296 66.7898 333.005 64.4988 333.005 61.6689C333.005 58.8391 335.296 56.5481 338.126 56.5481C338.271 56.5481 338.412 56.5578 338.558 56.5675C339.606 53.5678 342.455 51.4175 345.814 51.4175C349.173 51.4175 352.037 53.5823 353.076 56.5917C353.284 56.5675 353.493 56.5481 353.707 56.5481C354.517 56.5481 355.284 56.7422 355.964 57.0771C357.075 55.0045 359.26 53.5969 361.779 53.5969C365.424 53.5969 368.375 56.5481 368.375 60.1933C368.375 63.8386 365.424 66.7898 361.779 66.7898H338.126Z" fill="white"/>
<path d="M717.519 122.459C722.441 122.459 726.431 118.469 726.431 113.547C726.431 108.626 722.441 104.636 717.519 104.636C716.451 104.636 715.427 104.835 714.476 105.179C712.927 99.2672 707.549 94.9036 701.152 94.9036C694.754 94.9036 689.725 98.9857 687.988 104.607C686.551 103.747 684.876 103.247 683.076 103.247C677.77 103.247 673.47 107.548 673.47 112.853C673.47 118.159 677.77 122.459 683.076 122.459H717.519Z" fill="white"/>
</g>
<defs>
<clipPath id="clip0_1893_16516">
<rect width="814" height="301.578" fill="white"/>
</clipPath>
</defs>
</svg>
